<svg width="12" height="12" viewBox="0 0 12 12" fill="none" xmlns="http://www.w3.org/2000/svg">
<path d="M11.6908 8.85439L10.1994 7.36269C9.80148 6.96469 9.10629 6.96409 8.70769 7.36269L8.45898 7.61139L11.4422 10.5944L11.6908 10.3458C12.1037 9.93279 12.1024 9.26519 11.6908 8.85439Z" fill="white"/>
<path d="M7.948 8.09472C7.6342 8.33782 7.1865 8.32812 6.8997 8.04072L3.9509 5.08992C3.6635 4.80252 3.6538 4.35442 3.8969 4.04142L0.920569 1.06522C-0.359841 2.55772 -0.309781 4.80662 1.1034 6.21972L5.7699 10.8882C7.1259 12.2443 9.3472 12.4241 10.9245 11.071L7.948 8.09472Z" fill="white"/>
<path d="M4.62899 1.7904L3.13759 0.298703C2.73969 -0.0992275 2.04449 -0.0999075 1.64589 0.298703L1.39719 0.547392L4.38039 3.5304L4.62899 3.2818C5.04199 2.8689 5.04059 2.2013 4.62899 1.7904Z" fill="white"/>
</svg>
