<svg width="26" height="15" viewBox="0 0 26 15" fill="none" xmlns="http://www.w3.org/2000/svg">
<path d="M25.2451 13.4024C25.2135 13.3392 25.1864 13.2849 25.1593 13.2397C24.7304 12.4667 23.9087 11.5128 22.6987 10.3872L22.6716 10.36L22.658 10.3465L22.6445 10.3329H22.631C22.0801 9.8085 21.7325 9.45589 21.588 9.27506C21.3216 8.93149 21.2629 8.5834 21.4074 8.23079C21.5112 7.96407 21.8995 7.39898 22.5677 6.54005C22.9199 6.08347 23.1998 5.71729 23.4075 5.44153C24.893 3.46147 25.5386 2.19568 25.3399 1.64868L25.2632 1.5221C25.2135 1.44525 25.0781 1.37292 24.8659 1.30963C24.6491 1.24634 24.3737 1.23278 24.0396 1.27799L20.3283 1.30511C20.2696 1.28251 20.1838 1.28703 20.071 1.30963C19.9581 1.33676 19.9039 1.35032 19.9039 1.35032L19.8407 1.38196L19.791 1.42265C19.7459 1.44977 19.7007 1.49498 19.6511 1.55827C19.6014 1.62156 19.5563 1.69841 19.5247 1.7843C19.1183 2.82406 18.6623 3.79148 18.1431 4.68658C17.827 5.22002 17.5336 5.68113 17.2672 6.07442C17.0008 6.46772 16.7796 6.75253 16.599 6.93787C16.4184 7.12322 16.2558 7.2724 16.1068 7.3809C15.9623 7.49392 15.8495 7.53912 15.7727 7.52104C15.696 7.50296 15.6237 7.48488 15.5515 7.47131C15.4296 7.39446 15.3348 7.29049 15.2625 7.15487C15.1903 7.01925 15.1406 6.85198 15.1135 6.65307C15.0864 6.44964 15.0729 6.27786 15.0684 6.12867C15.0639 5.98401 15.0684 5.77606 15.0729 5.50934C15.0819 5.24262 15.0864 5.06179 15.0864 4.96686C15.0864 4.64137 15.091 4.28424 15.1045 3.89998C15.118 3.51572 15.1271 3.21284 15.1361 2.99132C15.1451 2.76981 15.1497 2.53021 15.1497 2.28158C15.1497 2.03294 15.1361 1.83855 15.1045 1.69389C15.0729 1.55375 15.0277 1.41361 14.9691 1.28251C14.9104 1.15141 14.8201 1.04743 14.7027 0.970581C14.5853 0.89825 14.4408 0.839481 14.2692 0.794274C13.8132 0.690299 13.2353 0.636051 12.531 0.627009C10.9327 0.608926 9.90777 0.712902 9.45176 0.938936C9.27116 1.03387 9.10862 1.16045 8.96415 1.32771C8.81064 1.51758 8.78806 1.62156 8.90094 1.63964C9.41564 1.71649 9.78135 1.90184 9.99807 2.19568L10.0748 2.34939C10.1335 2.4624 10.1967 2.66131 10.2554 2.9416C10.3141 3.2264 10.3548 3.53833 10.3728 3.8819C10.4135 4.51027 10.4135 5.04823 10.3728 5.49578C10.3277 5.94333 10.287 6.29142 10.2509 6.54005C10.2103 6.78869 10.1561 6.99212 10.0748 7.14583C9.99807 7.29953 9.94389 7.39446 9.92132 7.43063C9.89423 7.46679 9.87617 7.48488 9.85811 7.49392C9.74524 7.5346 9.63236 7.55721 9.51046 7.55721C9.38855 7.55721 9.24407 7.49844 9.0725 7.37638C8.90094 7.25432 8.72034 7.09158 8.53974 6.87911C8.35463 6.66663 8.14694 6.37279 7.91216 5.99305C7.6819 5.61332 7.43809 5.16577 7.18976 4.65041L6.98208 4.2752C6.85114 4.0356 6.67506 3.68299 6.45382 3.22188C6.22808 2.76077 6.03393 2.31774 5.86236 1.88376C5.79464 1.70293 5.69079 1.56731 5.55083 1.47238L5.48762 1.43169C5.44699 1.39552 5.37475 1.35936 5.27993 1.32319C5.18512 1.28251 5.08579 1.25538 4.98194 1.2373L1.45124 1.26442C1.09004 1.26442 0.846233 1.3458 0.715299 1.50854L0.665635 1.58539C0.638545 1.6306 0.625 1.69841 0.625 1.79334C0.625 1.88828 0.65209 2.00582 0.701754 2.14144C1.21646 3.35298 1.77632 4.52383 2.38584 5.654C2.99536 6.78417 3.51909 7.68831 3.96608 8.37545C4.41306 9.06259 4.86907 9.71357 5.33411 10.3239C5.79915 10.9342 6.10617 11.3275 6.25517 11.4992C6.40416 11.671 6.52606 11.8021 6.61185 11.888L6.93241 12.1999C7.1401 12.4079 7.4426 12.652 7.83992 12.9413C8.24175 13.2307 8.68422 13.5155 9.16732 13.7957C9.65494 14.076 10.2193 14.3021 10.8604 14.4784C11.5061 14.6547 12.1337 14.727 12.7432 14.6908H14.2241C14.5266 14.6637 14.7523 14.5688 14.9058 14.406L14.9555 14.3427C14.9916 14.293 15.0232 14.2116 15.0503 14.1031C15.0819 13.9946 15.0955 13.8771 15.0955 13.746C15.0864 13.3753 15.1135 13.0408 15.1813 12.7469C15.2445 12.4486 15.3167 12.2271 15.4025 12.0779C15.4838 11.9287 15.5786 11.8021 15.6779 11.6981C15.7817 11.5942 15.854 11.5309 15.8991 11.5128C15.9398 11.4902 15.9759 11.4766 16.003 11.4676C16.2107 11.3998 16.45 11.4676 16.7299 11.6665C17.0098 11.8699 17.2717 12.1186 17.5155 12.4169C17.7593 12.7153 18.0528 13.0453 18.4004 13.416C18.7436 13.7867 19.0461 14.0625 19.3034 14.2433L19.5608 14.397C19.7323 14.501 19.9581 14.5959 20.2335 14.6818C20.5089 14.7677 20.7482 14.7903 20.9559 14.7451L24.2563 14.6954C24.5814 14.6954 24.8388 14.6411 25.0149 14.5326C25.1955 14.4241 25.3038 14.3066 25.3354 14.1755C25.3715 14.0444 25.3715 13.8997 25.3399 13.737C25.3038 13.5787 25.2722 13.4657 25.2451 13.4024Z" fill="white"/>
</svg>
