<svg width="20" height="33" viewBox="0 0 20 33" fill="none" xmlns="http://www.w3.org/2000/svg">
<path d="M10 0C5.4436 0 1.75 3.69364 1.75 8.24982C1.75 12.8061 5.4436 16.5 10 16.5C14.5564 16.5 18.25 12.8061 18.25 8.24982C18.25 3.69364 14.5564 0 10 0ZM10 11.6604C8.11654 11.6604 6.58963 10.1334 6.58963 8.24994C6.58963 6.36652 8.11654 4.83965 10 4.83965C11.8835 4.83965 13.4104 6.36652 13.4104 8.24994C13.4104 10.1334 11.8835 11.6604 10 11.6604Z" fill="white"/>
<path d="M13.0614 23.7497C16.4623 23.0569 18.5003 21.4464 18.6081 21.3599C19.6033 20.5618 19.7632 19.1081 18.9651 18.1128C18.1671 17.1176 16.7135 16.9578 15.7181 17.7558C15.697 17.7728 13.5234 19.4402 9.94691 19.4427C6.37058 19.4402 4.15096 17.7728 4.12993 17.7558C3.13452 16.9578 1.68091 17.1176 0.88293 18.1128C0.0848255 19.1081 0.24469 20.5618 1.23986 21.3599C1.34915 21.4476 3.47127 23.1001 6.96749 23.7766L2.09486 28.8689C1.20934 29.7872 1.23597 31.2495 2.1543 32.135C2.60253 32.5672 3.18023 32.782 3.75744 32.782C4.36261 32.782 4.96718 32.5455 5.42039 32.0754L9.94703 27.2534L14.9309 32.1067C15.8339 33.0082 17.2962 33.0068 18.1975 32.1041C19.0988 31.2013 19.0977 29.7388 18.1949 28.8375L13.0614 23.7497Z" fill="white"/>
<path d="M9.94737 19.4427C9.94008 19.4427 9.95451 19.4429 9.94737 19.443C9.94024 19.4429 9.95466 19.4427 9.94737 19.4427Z" fill="white"/>
</svg>
