<svg width="27" height="19" viewBox="0 0 27 19" fill="none" xmlns="http://www.w3.org/2000/svg">
<g clip-path="url(#clip0)">
<path d="M25.8933 3.43161C25.7499 2.77958 25.4089 2.18764 24.9168 1.73652C24.4246 1.28539 23.8053 0.997039 23.1433 0.91078C19.9381 0.611724 16.7186 0.49237 13.5 0.55328C10.2936 0.493775 7.08641 0.613127 3.89332 0.91078C3.2313 0.997039 2.612 1.28539 2.11987 1.73652C1.62773 2.18764 1.28672 2.77958 1.14332 3.43161C0.760368 5.43052 0.6005 7.46576 0.666658 9.49995C0.59144 11.5331 0.742084 13.5683 1.11582 15.5683C1.25922 16.2203 1.60023 16.8123 2.09237 17.2634C2.5845 17.7145 3.2038 18.0029 3.86582 18.0891C7.06803 18.388 10.2844 18.5073 13.5 18.4466C16.7064 18.5063 19.9136 18.387 23.1067 18.0891C23.7687 18.0029 24.388 17.7145 24.8801 17.2634C25.3723 16.8123 25.7133 16.2203 25.8567 15.5683C26.2396 13.5694 26.3995 11.5341 26.3333 9.49995C26.4116 7.46712 26.264 5.43189 25.8933 3.43161ZM10.1908 13.5149V4.99911L18.3492 9.25245L10.1908 13.5149Z" fill="white"/>
</g>
<defs>
<clipPath id="clip0">
<rect width="25.6667" height="18.3333" fill="white" transform="translate(0.666656 0.333252)"/>
</clipPath>
</defs>
</svg>
