<?xml version="1.0" encoding="UTF-8"?> <svg xmlns="http://www.w3.org/2000/svg" width="83" height="83" viewBox="0 0 83 83" fill="none"> <path d="M41.5001 11.0672C42.2641 11.0672 42.8835 10.4478 42.8835 9.68384V1.38341C42.8835 0.61942 42.2641 0 41.5001 0C40.7361 0 40.1167 0.61942 40.1167 1.38341V9.68384C40.1167 10.4478 40.7359 11.0672 41.5001 11.0672Z" fill="#AD3445"></path> <path d="M20.9344 7.25872L25.0846 14.4524C25.4623 15.1166 26.3068 15.3489 26.971 14.9712C27.6352 14.5935 27.8675 13.749 27.4898 13.0848C27.4869 13.0794 27.4838 13.0742 27.4807 13.0688L23.3304 5.87514C22.9528 5.21093 22.1082 4.97869 21.444 5.35636C20.7798 5.73403 20.5475 6.5786 20.9252 7.24281C20.9282 7.24817 20.9313 7.25353 20.9344 7.25872Z" fill="#AD3445"></path> <path d="M7.26225 21.9491L14.456 26.0993C15.1202 26.477 15.9647 26.2447 16.3424 25.5805C16.7164 24.9225 16.4923 24.0861 15.8394 23.7032L8.64566 19.553C7.98145 19.1753 7.13688 19.4076 6.75921 20.0718C6.385 20.7298 6.60911 21.5662 7.26225 21.9491Z" fill="#AD3445"></path> <path d="M12.4486 40.1188C12.4486 39.3548 11.8292 38.7354 11.0652 38.7354H2.76475C2.00077 38.7354 1.38135 39.3548 1.38135 40.1188C1.38135 40.8827 2.00077 41.5022 2.76475 41.5022H11.0652C11.8292 41.5022 12.4486 40.8827 12.4486 40.1188Z" fill="#AD3445"></path> <path d="M14.4665 54.1289C14.4611 54.132 14.4557 54.1351 14.4504 54.1382L7.25667 58.2885C6.59246 58.666 6.36005 59.5105 6.73755 60.1747C7.11505 60.8389 7.95962 61.0713 8.62382 60.6939C8.62918 60.6907 8.63455 60.6876 8.63991 60.6845L15.8336 56.5343C16.4978 56.1568 16.7302 55.3122 16.3527 54.648C15.9752 53.9838 15.1307 53.7514 14.4665 54.1289Z" fill="#AD3445"></path> <path d="M75.7379 58.2884L68.5442 54.1381C67.8851 53.7517 67.0375 53.9727 66.651 54.6317C66.2645 55.2907 66.4855 56.1384 67.1445 56.5249C67.1499 56.528 67.1552 56.5311 67.1606 56.5342L74.3543 60.6844C75.0185 61.0619 75.8631 60.8295 76.2406 60.1653C76.6146 59.5075 76.3907 58.6712 75.7379 58.2884Z" fill="#AD3445"></path> <path d="M80.2354 38.7354H71.9349C71.1709 38.7354 70.5515 39.3548 70.5515 40.1188C70.5515 40.8827 71.1709 41.5022 71.9349 41.5022H80.2354C80.9993 41.5022 81.6188 40.8827 81.6188 40.1188C81.6188 39.3548 80.9993 38.7354 80.2354 38.7354Z" fill="#AD3445"></path> <path d="M67.8597 26.2847C68.1025 26.2847 68.3411 26.2207 68.5514 26.0993L75.7451 21.9491C76.4043 21.5628 76.6253 20.7151 76.239 20.0561C75.8561 19.4031 75.0197 19.179 74.3617 19.553L67.168 23.7033C66.5063 24.0853 66.2796 24.9314 66.6616 25.593C66.9087 26.021 67.3654 26.2847 67.8597 26.2847Z" fill="#AD3445"></path> <path d="M56.026 14.9588C56.6876 15.3408 57.5337 15.1141 57.9157 14.4525L62.0659 7.25875C62.4524 6.59973 62.2314 5.75205 61.5724 5.36556C60.9134 4.97907 60.0657 5.20007 59.6792 5.85909C59.6761 5.86445 59.673 5.86981 59.6699 5.87517L55.5197 13.0689C55.1375 13.7307 55.3642 14.5768 56.026 14.9588Z" fill="#AD3445"></path> <path d="M41.5001 19.3677C30.045 19.3806 20.762 28.6636 20.749 40.1188C20.749 40.8827 21.3684 41.5022 22.1324 41.5022C22.8964 41.5022 23.5158 40.8827 23.5158 40.1188C23.5273 30.1911 31.5724 22.1459 41.5001 22.1345C42.2641 22.1345 42.8835 21.5151 42.8835 20.7511C42.8835 19.9871 42.2641 19.3677 41.5001 19.3677Z" fill="#AD3445"></path> <path d="M66.8164 47.1658V47.1589C66.8607 47.0206 66.9008 46.8712 66.9354 46.7356C66.9852 46.5447 67.0267 46.3524 67.0737 46.1601C67.1207 45.9678 67.165 45.7755 67.1913 45.622C70.2585 31.4331 61.2427 17.4443 47.0538 14.3769C32.8649 11.3095 18.876 20.3255 15.8087 34.5144C15.4106 36.3559 15.2117 38.2348 15.2154 40.1188C15.2154 40.7344 15.2417 41.3459 15.2846 41.9532C15.3067 42.2893 15.3399 42.631 15.3814 42.9893C15.4589 43.6949 15.5585 44.3949 15.6927 45.088C15.7037 45.1447 15.7079 45.2028 15.7231 45.2595C15.784 45.5763 15.8614 45.8834 15.9348 46.1905C15.9776 46.369 16.0191 46.5475 16.0648 46.7245C16.0855 46.7992 16.0966 46.8629 16.1201 46.9487C16.1755 47.1548 16.2405 47.3498 16.3014 47.5518C16.3664 47.7759 16.4286 48 16.5006 48.2214L16.5089 48.2477C16.6334 48.6502 16.7745 49.0417 16.9446 49.4775C16.9765 49.5619 17.0097 49.6449 17.0429 49.7279C17.0733 49.831 17.1132 49.9309 17.1618 50.0267L17.1687 50.0433C17.2614 50.2896 17.3693 50.5344 17.4772 50.7641L17.4952 50.7987C17.5644 50.955 17.6336 51.1099 17.7083 51.2663C17.7429 51.3437 17.7761 51.4295 17.8106 51.5001C18.1812 52.281 18.5942 53.0412 19.0474 53.7771L19.1761 53.9819C19.2591 54.1202 19.3435 54.2586 19.4278 54.3762L19.598 54.6293C19.681 54.7511 19.7668 54.8742 19.8512 54.9959C19.912 55.0845 19.9688 55.173 20.031 55.2601C20.0614 55.3099 20.0905 55.3584 20.1292 55.4109C20.1583 55.4497 20.1901 55.4884 20.2205 55.5271C20.2745 55.6018 20.3298 55.6655 20.3838 55.7388C20.6107 56.0459 20.8403 56.3503 21.0755 56.6477L21.0921 56.6698C21.1364 56.7224 21.182 56.7722 21.2304 56.8248C21.5071 57.1596 21.7838 57.4916 22.0812 57.8139H22.0881C22.3344 58.0906 22.5958 58.3507 22.8559 58.6135C22.9389 58.6951 23.015 58.7823 23.098 58.8639C23.134 58.8985 23.1658 58.9372 23.2018 58.9718C23.5753 59.3315 23.9627 59.676 24.3459 60.0163C25.0721 60.653 25.8382 61.2425 26.6395 61.7815C26.7831 61.9436 26.9627 62.0696 27.1639 62.1495L27.7048 66.178C27.6852 66.2518 27.6723 66.3274 27.666 66.4035C27.6698 66.6162 27.7233 66.8252 27.8224 67.0136L28.8405 74.5835C28.8573 74.7139 28.8931 74.8412 28.9471 74.9612C29.2398 75.623 29.5926 76.2564 30.0012 76.8537V76.8634L30.0123 76.8759C34.2635 83.215 42.8487 84.9077 49.1878 80.6565C50.6821 79.6544 51.9664 78.3701 52.9685 76.8759L52.9796 76.8634L52.9865 76.8537C53.3951 76.2564 53.7479 75.623 54.0406 74.9612C54.0946 74.8412 54.1304 74.7139 54.1472 74.5835L55.8197 62.1481C55.9165 62.1158 56.0092 62.0726 56.0964 62.0195C61.3163 58.5215 65.1115 53.2706 66.7956 47.217C66.8081 47.2004 66.8164 47.1838 66.8164 47.1658ZM34.1929 77.4707H48.8072C44.6342 81.1597 38.3658 81.1597 34.1929 77.4707ZM51.444 74.0122C51.3347 74.2474 51.2144 74.4784 51.0857 74.7039H31.9143C31.7856 74.4798 31.6653 74.2488 31.556 74.0122L30.719 67.7869H52.2808L51.444 74.0122ZM52.6503 65.0367C52.6213 65.0353 52.5964 65.0201 52.5673 65.0201H30.3471L29.9749 62.2533H53.0252L52.6503 65.0367ZM38.7333 59.4865V46.5322L40.6825 47.9364C41.1655 48.2843 41.8167 48.2843 42.2997 47.9364L44.2669 46.5198V59.4865H38.7333ZM64.9654 41.6405C64.9391 42.0666 64.9004 42.4789 64.8492 42.8939V42.9257C64.8322 43.0013 64.8207 43.0781 64.8146 43.1554V43.183C64.8063 43.2245 64.8008 43.266 64.7952 43.3103C64.7897 43.3546 64.7869 43.3795 64.7828 43.4168C64.7828 43.4569 64.7717 43.4957 64.7662 43.5358C64.7358 43.7502 64.7039 43.9633 64.6666 44.1763C64.6486 44.2731 64.6348 44.3631 64.6112 44.4724C64.5891 44.619 64.5545 44.7767 64.5033 45.0119V45.0368C64.4688 45.2028 64.4328 45.3688 64.3941 45.5334C64.3802 45.5888 64.3705 45.6358 64.3539 45.6981C64.3074 45.9254 64.2491 46.1503 64.1796 46.3718C64.1533 46.47 64.1243 46.5682 64.0966 46.6664C64.0288 46.9168 63.9583 47.1617 63.8642 47.4287C63.7508 47.7828 63.6387 48.137 63.5004 48.4759L63.4464 48.6143C63.3817 48.7941 63.3079 48.9705 63.2251 49.1427C63.1948 49.2024 63.1694 49.2645 63.149 49.3281L63.1213 49.3904C62.9982 49.7002 62.8612 49.9963 62.6842 50.3587C62.5846 50.5829 62.4739 50.7945 62.3632 51.0062L62.1958 51.3368C60.4207 54.6084 57.8922 57.4105 54.8195 59.5114C54.7476 59.4968 54.6744 59.4885 54.6009 59.4865H47.0337V47.8576L47.1444 47.9364C47.6267 48.2829 48.2765 48.2829 48.7588 47.9364L51.9904 45.615C52.6232 45.1867 52.789 44.3268 52.3607 43.694C51.9323 43.0613 51.0724 42.8954 50.4396 43.3238C50.4185 43.3381 50.3978 43.353 50.3774 43.3684L47.9509 45.1101L45.5258 43.3684C45.0432 43.0212 44.3926 43.0212 43.91 43.3684L41.4918 45.1087L39.0736 43.3684C38.5906 43.0205 37.9394 43.0205 37.4564 43.3684L35.0396 45.1087L32.6255 43.3684C32.0056 42.9214 31.1406 43.0618 30.6936 43.6817C30.2466 44.3017 30.387 45.1667 31.007 45.6137L34.2303 47.9364C34.7133 48.2843 35.3645 48.2843 35.8475 47.9364L35.9665 47.8506V59.4865H28.3992C28.3404 59.4871 28.2818 59.4913 28.2235 59.4989C26.7298 58.4762 25.3582 57.2856 24.1356 55.9505C23.8713 55.6627 23.6154 55.3584 23.3581 55.0471C23.3111 54.9904 23.2599 54.935 23.2128 54.8769C22.979 54.6003 22.7646 54.307 22.5516 54.0109C22.47 53.9003 22.3828 53.7937 22.3039 53.6817V53.6734C22.2929 53.6568 22.2832 53.6416 22.2721 53.6277L22.2265 53.5599C22.1905 53.5129 22.1615 53.4645 22.1269 53.4216C21.8045 52.954 21.5043 52.4726 21.2166 51.9842C20.9399 51.5194 20.6895 51.0532 20.4571 50.5787C20.3644 50.3947 20.269 50.2121 20.1804 50.0253C20.1541 49.9603 20.1223 49.887 20.1057 49.8469L20.0379 49.7085L20.0213 49.6753V49.6684C19.6836 48.9153 19.3867 48.1446 19.1318 47.3595C19.1069 47.2848 19.0834 47.206 19.0585 47.1299C18.9326 46.7273 18.815 46.3206 18.7099 45.9083C18.7099 45.8862 18.6974 45.8654 18.6933 45.8433C18.685 45.788 18.6739 45.733 18.6601 45.6787C18.6352 45.5846 18.6172 45.4864 18.595 45.3923C18.5286 45.1046 18.4567 44.8182 18.4041 44.5277C18.4041 44.4959 18.3972 44.4641 18.3917 44.4322C18.3184 44.0546 18.2533 43.6631 18.2063 43.2716C18.2053 43.1856 18.1942 43.1002 18.1731 43.017C18.1731 42.988 18.1634 42.9409 18.1551 42.8925C18.1039 42.4775 18.0666 42.0735 18.0389 41.6267C17.9946 41.1245 17.9822 40.621 17.9822 40.1188C17.9967 27.1362 28.5175 16.6154 41.5001 16.6009C54.4826 16.6154 65.0034 27.1362 65.018 40.1188C65.018 40.621 65.0055 41.1245 64.9654 41.6405Z" fill="#AD3445"></path> </svg> 