<?xml version="1.0" encoding="UTF-8"?> <svg xmlns="http://www.w3.org/2000/svg" width="76" height="76" viewBox="0 0 76 76" fill="none"> <g clip-path="url(#clip0)"> <path d="M65.5723 55.7333C65.9746 53.5978 65.9643 51.405 65.5419 49.2733L71.3433 35.2728C71.3439 35.2636 71.3439 35.2543 71.3433 35.245C72.2833 32.6712 73.661 30.2792 75.4156 28.1744C75.8521 27.7133 76.0278 27.0637 75.883 26.4454L73.5042 16.1728C73.4759 16.0654 73.4333 15.9623 73.3775 15.8662C73.3674 15.8472 73.3636 15.8244 73.3534 15.8067C73.3433 15.789 73.299 15.7459 73.2737 15.713C73.2218 15.6371 73.1619 15.567 73.095 15.504C73.051 15.473 73.0049 15.445 72.957 15.4204C72.8952 15.3749 72.8295 15.3351 72.7607 15.3013C72.6652 15.2652 72.5656 15.241 72.4642 15.2291C72.4351 15.2291 72.4098 15.2101 72.3807 15.2076C72.1379 15.1914 71.8956 15.2455 71.6827 15.3634C71.6637 15.3735 71.6409 15.3773 71.6219 15.3887H71.6093L62.6653 20.9709C62.1237 21.3063 61.7875 21.892 61.771 22.5289C61.5226 25.2638 60.8022 27.935 59.6418 30.424V30.438L56.7424 37.4464C55.3193 36.6899 53.7959 36.1398 52.2178 35.8124C52.8152 31.6894 53.0348 27.5203 52.874 23.3573C55.2319 20.5283 56.3635 16.8753 56.0178 13.2088C55.2262 5.82664 48.5547 0.495238 48.2697 0.271038C47.8413 -0.0662853 47.2452 -0.091654 46.7897 0.208059C46.3342 0.507772 46.1217 1.06531 46.262 1.59217C46.9143 4.0419 46.3494 6.62717 41.531 11.9434C39.3661 14.0337 38.6799 17.2255 39.7944 20.0209C40.2205 21.0901 40.831 22.0762 41.5981 22.9342C41.2916 24.8912 41.0509 26.7444 40.885 28.5494C40.5993 31.5348 40.5256 34.5367 40.6646 37.5326C39.5346 38.1452 38.4767 38.8824 37.5106 39.7302L31.3673 13.4596C31.3673 13.433 31.3419 13.414 31.3343 13.3899C31.3137 13.3054 31.284 13.2235 31.2457 13.1454L24.9706 1.5567C24.3426 0.396784 23.0159 -0.199265 21.7317 0.10152C20.4474 0.402305 19.5234 1.52549 19.4758 2.84364L18.9995 16.0106C18.9998 16.1057 19.0104 16.2004 19.0312 16.2931C19.0312 16.3134 19.0312 16.3311 19.0312 16.3501L25.2987 43.0983C24.31 43.142 23.3285 43.2884 22.3701 43.5353L15.4757 26.885C14.9228 25.6122 13.4565 25.0116 12.1697 25.5309L1.63225 29.8933C0.342617 30.4316 -0.270255 31.9103 0.260452 33.2031L9.61099 55.7599C4.13076 56.0476 -0.123129 60.6481 0.0183199 66.134C0.159769 71.62 4.64508 75.995 10.1329 76H65.8662C69.4865 75.9475 72.8038 73.9676 74.5684 70.8061C76.3331 67.6445 76.2771 63.7817 74.4215 60.6727C72.5659 57.5637 69.1926 55.6808 65.5723 55.7333ZM64.2816 22.9469L69.5915 19.6333L67.7117 24.173C67.4438 24.8194 67.7506 25.5606 68.397 25.8286C69.0434 26.0965 69.7846 25.7897 70.0525 25.1433L71.9323 20.6036L73.3395 26.7C71.8339 28.5369 70.597 30.5785 69.6662 32.7636C68.3456 33.3757 66.8291 33.4075 65.484 32.8512C64.1389 32.2949 63.0879 31.2012 62.5855 29.835C63.4751 27.6312 64.0462 25.3118 64.2816 22.9469ZM61.3683 32.8915C62.2062 33.916 63.2937 34.7077 64.5261 35.1905C65.5056 35.6118 66.5593 35.834 67.6256 35.8441C67.8821 35.8432 68.1384 35.8275 68.3932 35.7972L64.3512 45.5506C63.1409 42.8821 61.2687 40.5673 58.9122 38.8258L61.3683 32.8915ZM44.0149 23.845L50.3786 24.2338C50.4179 25.4169 50.404 26.6405 50.3647 27.8831C48.2447 28.0346 46.1142 27.9317 44.0187 27.5766C43.8591 27.5538 43.7033 27.536 43.545 27.5145C43.6716 26.3213 43.8262 25.1129 44.0124 23.845H44.0149ZM43.4107 13.6445C46.7737 9.93444 48.5167 7.08064 48.922 4.39784C51.3393 6.885 52.935 10.0542 53.4934 13.4773C53.7594 16.4573 52.838 19.4217 50.9296 21.7258C48.4276 21.5738 45.9529 21.4218 43.5057 21.2698C42.4542 20.2868 41.8493 18.9173 41.8309 17.478C41.8125 16.0386 42.3821 14.6541 43.4082 13.6445H43.4107ZM43.3144 30.039L43.6818 30.0871C45.314 30.3395 46.9616 30.4796 48.6129 30.5064C49.1373 30.5064 49.6896 30.4646 50.2431 30.4215C50.1278 32.0517 49.9391 33.7541 49.6997 35.5135C49.3868 35.497 49.0803 35.4666 48.7662 35.4666C46.8538 35.4701 44.9558 35.7968 43.1523 36.4331C43.0939 34.3004 43.1472 32.1661 43.3119 30.039H43.3144ZM33.5168 44.8514L29.8929 29.4145C29.7234 28.7448 29.0486 28.3343 28.376 28.4919C27.7034 28.6494 27.2811 29.3168 27.4267 29.9921L30.6833 43.8862C29.7879 43.566 28.8629 43.3356 27.9219 43.1984L22.3625 19.4737C23.1413 19.8283 23.9869 20.0123 24.8427 20.0133C24.9225 20.0133 25.0073 20.0019 25.0884 19.9981L25.9839 23.8222C26.0804 24.2698 26.411 24.6304 26.8485 24.7655C27.286 24.9006 27.7623 24.789 28.0944 24.4737C28.4264 24.1584 28.5624 23.6885 28.4501 23.2446L27.5533 19.418C28.4127 19.0375 29.1707 18.4605 29.7662 17.7333L35.4181 41.9C34.6841 42.8155 34.0469 43.8046 33.5168 44.8514ZM25.7775 17.3647C24.1575 17.6789 22.5035 17.0166 21.5481 15.6712L21.7089 11.21C22.1496 11.2923 22.5969 11.3347 23.0453 11.3366C23.4783 11.3385 23.9101 11.2904 24.3322 11.1935C25.1867 10.9691 25.986 10.5716 26.6806 10.0256L28.8137 13.9624C28.5595 15.5958 27.3712 16.9284 25.7775 17.3672V17.3647ZM22.3081 2.5675C22.4806 2.52754 22.6587 2.60726 22.7438 2.76257L25.4595 7.78491C24.9696 8.2281 24.3846 8.55309 23.7495 8.73491C23.1004 8.85405 22.4326 8.82242 21.7976 8.64244L22.0041 2.93484C22.0109 2.75784 22.1355 2.60737 22.3081 2.5675ZM13.1412 27.8666L14.1089 30.2049L9.42225 32.1454C8.86664 32.3788 8.55233 32.9712 8.67069 33.5621C8.78905 34.153 9.30731 34.5787 9.90992 34.58C10.0763 34.5796 10.2411 34.5469 10.3951 34.4837L15.0817 32.5419L16.0507 34.8827L13.7061 35.8542C13.1473 36.0855 12.8299 36.6795 12.9483 37.2726C13.0667 37.8656 13.5878 38.2923 14.1925 38.2913C14.3585 38.2907 14.5228 38.258 14.6764 38.195L17.021 37.2235L17.99 39.5643L13.2995 41.5086C12.7407 41.7399 12.4233 42.3339 12.5417 42.927C12.6601 43.52 13.1812 43.9467 13.7859 43.9457C13.9519 43.9453 14.1163 43.9126 14.2698 43.8494L18.9565 41.9089L19.9812 44.3827C15.8536 46.2667 12.8269 49.9506 11.7795 54.3653L2.59872 32.229L13.1412 27.8666ZM65.8662 73.4666H10.1329C5.93549 73.4666 2.53285 70.064 2.53285 65.8666C2.53285 61.6693 5.93549 58.2666 10.1329 58.2666C10.8668 58.2642 11.5971 58.3701 12.3001 58.5808C12.6799 58.6955 13.0915 58.6256 13.4122 58.392C13.7329 58.1584 13.9256 57.7881 13.9329 57.3914C14.023 52.8771 16.6326 48.7931 20.6913 46.8148C24.75 44.8364 29.5747 45.2966 33.1862 48.0066C33.5053 48.2442 33.9175 48.318 34.2992 48.2059C34.681 48.0939 34.9879 47.809 35.128 47.4366C37.6027 40.8413 44.4423 36.9619 51.3729 38.2224C58.3035 39.483 63.339 45.5223 63.3329 52.5666C63.3353 54.0152 63.1197 55.456 62.6932 56.8404C62.5601 57.2711 62.6659 57.7401 62.9711 58.0719C63.2763 58.4037 63.7349 58.5483 64.1752 58.4516C64.7306 58.3293 65.2975 58.2673 65.8662 58.2666C70.0635 58.2666 73.4662 61.6693 73.4662 65.8666C73.4662 70.064 70.0635 73.4666 65.8662 73.4666Z" fill="#AD3445"></path> <path d="M49.001 19.8866C49.3986 19.8881 49.7738 19.7028 50.0144 19.3863C51.5957 17.2459 52.2068 14.5404 51.699 11.9281C51.591 11.4815 51.2495 11.1284 50.8067 11.0054C50.3639 10.8825 49.8893 11.009 49.5664 11.336C49.2436 11.6631 49.1232 12.1393 49.2518 12.5805C49.5551 14.4367 49.1026 16.3371 47.9953 17.8574C47.7074 18.2412 47.6611 18.7548 47.8757 19.1839C48.0902 19.613 48.5288 19.8841 49.0086 19.8841L49.001 19.8866Z" fill="#AD3445"></path> <path d="M47.3355 58.2666C46.3935 58.2695 45.4646 58.4861 44.6185 58.9C42.3398 55.782 38.0851 54.8686 34.7275 56.7766C31.3699 58.6846 29.977 62.8072 31.4895 66.3606C31.6885 66.8277 32.1471 67.1308 32.6548 67.1308C32.8255 67.1312 32.9944 67.0967 33.1513 67.0294C33.4604 66.8978 33.7045 66.6487 33.8299 66.337C33.9553 66.0254 33.9518 65.6766 33.8201 65.3676C33.5444 64.7248 33.4022 64.0327 33.4021 63.3333C33.4021 60.5351 35.6705 58.2666 38.4688 58.2666C40.4341 58.2568 42.224 59.3957 43.0478 61.18C43.0752 61.2212 43.1048 61.261 43.1365 61.299C43.1565 61.3425 43.1789 61.3848 43.2036 61.4257C43.2264 61.4536 43.2593 61.4662 43.2847 61.4928C43.3441 61.5545 43.4099 61.6097 43.481 61.6575C43.5443 61.7062 43.6121 61.7486 43.6837 61.7842C43.7572 61.815 43.8336 61.8388 43.9117 61.8551C43.9895 61.8755 44.0694 61.8879 44.1498 61.8918C44.3143 61.8905 44.4777 61.8631 44.6337 61.8108C44.6674 61.8045 44.7008 61.7965 44.7337 61.7867C44.7748 61.7601 44.8142 61.7309 44.8515 61.6993C44.8971 61.679 44.9415 61.6562 44.9845 61.6309C45.6499 61.0928 46.4798 60.7995 47.3355 60.8C48.8165 60.8024 50.1612 61.6651 50.7808 63.0103C51.0711 63.6469 51.8225 63.9276 52.4591 63.6373C53.0957 63.347 53.3764 62.5956 53.0861 61.959C52.0547 59.7108 49.8089 58.2689 47.3355 58.2666Z" fill="#AD3445"></path> <path d="M22.3998 49.4645C22.2085 49.5266 17.7334 51.0744 17.7334 55.7332C17.7334 56.4328 18.3005 56.9999 19.0001 56.9999C19.6996 56.9999 20.2667 56.4328 20.2667 55.7332C20.3701 53.9663 21.5327 52.4376 23.2079 51.8661C23.8725 51.6429 24.2304 50.9233 24.0072 50.2587C23.784 49.5941 23.0644 49.2363 22.3998 49.4594V49.4645Z" fill="#AD3445"></path> <path d="M40.2256 48.0953C40.3262 48.1209 40.4296 48.1336 40.5334 48.1333C41.1139 48.1327 41.6197 47.7376 41.7608 47.1745C42.3438 44.8092 44.4377 43.1267 46.8731 43.0667C47.5726 43.0649 48.1383 42.4964 48.1366 41.7968C48.1348 41.0973 47.5663 40.5316 46.8667 40.5333C43.2665 40.5811 40.1553 43.0602 39.3047 46.5589C39.1348 47.2374 39.547 47.9253 40.2256 48.0953Z" fill="#AD3445"></path> </g> <defs> <clipPath id="clip0"> <rect width="76" height="76" fill="white"></rect> </clipPath> </defs> </svg> 