<svg version="1.0" xmlns="http://www.w3.org/2000/svg" width="1146.667" height="918.667" viewBox="0 0 860 689"><path d="M176 106.5c-22.6 4.9-42.1 24-48 47.1-2 7.5-2 11.9-2 191.4s0 183.9 2 191.4c6.1 23.9 24.9 42 48.8 47.1 6.5 1.3 35.9 1.5 253.2 1.5 217.3 0 246.7-.2 253.2-1.5 19.1-4 35.3-16.6 43.9-34 7.3-14.8 6.9-1.6 6.9-204.5 0-203.5.4-189.6-7.1-205-8.2-16.6-25.1-29.6-43.5-33.5-10.1-2.1-497.4-2.1-507.4 0zm457 66.9c-2.5 2.4-50.8 48.1-107.4 101.6l-102.9 97.2-15.1-14.9c-8.3-8.2-49.5-48.9-91.6-90.4-42.1-41.6-81.7-80.6-88-86.7l-11.5-11.1L427 169h210.5l-4.5 4.4zM670 374v147H190V232.8l26.3 25.7c14.4 14.2 58.4 57.6 97.7 96.4 74 73.1 78 76.7 90.6 81.3 8.2 3 23.1 3.6 31 1.3 7.7-2.2 17.7-7.5 23.9-12.6 2.8-2.3 20-18.4 38.4-35.8C622.1 271.6 669.4 227 669.7 227c.2 0 .3 66.1.3 147z"/></svg>