<svg width="25" height="24" viewBox="0 0 25 24" fill="none" xmlns="http://www.w3.org/2000/svg">
<g clip-path="url(#clip0)">
<path d="M1.02246 8.39404C1.02246 8.39404 5.02246 0.394043 12.0225 0.394043C19.0225 0.394043 23.0225 8.39404 23.0225 8.39404C23.0225 8.39404 19.0225 16.394 12.0225 16.394C5.02246 16.394 1.02246 8.39404 1.02246 8.39404Z" stroke="#263141" stroke-linecap="round" stroke-linejoin="round"/>
<mask id="mask0" mask-type="alpha" maskUnits="userSpaceOnUse" x="1" y="0" width="23" height="17">
<path d="M1.02246 8.39404C1.02246 8.39404 5.02246 0.394043 12.0225 0.394043C19.0225 0.394043 23.0225 8.39404 23.0225 8.39404C23.0225 8.39404 19.0225 16.394 12.0225 16.394C5.02246 16.394 1.02246 8.39404 1.02246 8.39404Z" fill="black"/>
</mask>
<g mask="url(#mask0)">
<path d="M-2.5 4C-2.5 4 2.95455 -5 12.5 -5C22.0455 -5 27.5 4 27.5 4C27.5 4 22.0455 13 12.5 13C2.95455 13 -2.5 4 -2.5 4Z" stroke="#263141" stroke-linecap="round" stroke-linejoin="round"/>
</g>
</g>
<defs>
<clipPath id="clip0">
<rect width="24" height="24" fill="white" transform="translate(0.5)"/>
</clipPath>
</defs>
</svg>
