<?xml version="1.0" encoding="UTF-8"?> <svg xmlns="http://www.w3.org/2000/svg" width="84" height="84" viewBox="0 0 84 84" fill="none"> <path d="M82.2595 46.3585L74.648 31.3775C73.9627 30.0287 72.6527 29.1912 71.2291 29.1912C68.6625 29.1912 15.3332 29.1912 12.7712 29.1912C11.3474 29.1912 10.0376 30.0287 9.35227 31.3775L1.74075 46.3585C1.3383 47.1506 1.37604 48.112 1.83935 48.8669C2.26887 49.5669 2.99829 49.9846 3.79038 49.9846H9.98784V80.1206C9.98784 82.2595 11.5991 83.9998 13.5798 83.9998C14.3924 83.9998 69.6085 83.9998 70.4211 83.9998C72.4016 83.9998 74.0131 82.2596 74.0131 80.1206V67.1836C74.0131 66.5039 73.4623 65.953 72.7824 65.953C72.1026 65.953 71.5518 66.5037 71.5518 67.1836V80.1208C71.5518 80.8894 71.034 81.5389 70.4209 81.5389H43.2308V35.5604L49.649 48.1922C50.2106 49.298 51.2891 49.9849 52.4633 49.9849H71.5515V61.4413C71.5515 62.121 72.1022 62.6719 72.7821 62.6719C73.462 62.6719 74.0127 62.1211 74.0127 61.4413V49.9849H80.2102C81.0023 49.9849 81.7316 49.5671 82.1612 48.8672C82.6242 48.1118 82.6621 47.1508 82.2595 46.3585ZM3.92311 47.5238C3.92311 47.5082 3.92623 47.4909 3.93492 47.4735L11.5464 32.4924C11.8096 31.9743 12.279 31.6524 12.7713 31.6524H39.9947C39.0541 33.5039 33.427 44.5787 32.1574 47.0776V47.0777C32.0175 47.3529 31.7799 47.5238 31.5373 47.5238C30.843 47.5238 4.67255 47.5238 3.92311 47.5238ZM40.7696 81.5387H13.5797C12.9667 81.5389 12.4489 80.8896 12.4489 80.1208V49.9848H31.5371C32.7156 49.9848 33.7918 49.2941 34.3515 48.1922L40.7696 35.5602V81.5387ZM52.4633 47.5237C52.2206 47.5237 51.9829 47.3527 51.8431 47.0774L44.0059 31.6523H71.2293C71.7214 31.6523 72.1907 31.9742 72.4541 32.4923L80.0657 47.4733C80.0745 47.4907 80.0775 47.5081 80.0775 47.5237C79.3267 47.5237 53.1578 47.5237 52.4633 47.5237Z" fill="#AD3445"></path> <path d="M41.9997 3.8261C39.2569 -0.574549 33.1021 -1.31775 29.3959 2.39367C27.8649 3.92683 27.0229 5.96203 27.025 8.12454C27.0313 14.3733 31.2152 20.4225 38.5038 24.7208C38.7 24.8366 38.9153 24.8916 39.1278 24.8916C39.5489 24.8916 39.9592 24.6752 40.1888 24.286C40.5339 23.7008 40.3394 22.9461 39.754 22.6009C36.6694 20.7816 29.4938 15.7292 29.4858 8.12208C29.4825 4.73287 32.4681 2.0685 35.8777 2.52754C38.925 2.93819 39.9802 5.33252 40.2147 5.57697C41.3014 6.71081 42.7846 6.71475 43.8072 5.54301C44.0803 5.22719 45.3995 2.46389 48.8714 2.46028C51.9794 2.46028 54.5111 4.98865 54.5145 8.09648C54.5219 15.3392 48.079 20.2903 44.238 22.597C43.6554 22.9469 43.4667 23.7028 43.8167 24.2855C44.1668 24.8683 44.9224 25.0564 45.5052 24.7068C52.9084 20.2609 56.9822 14.3609 56.9758 8.09386C56.9669 0.172263 46.5562 -3.19971 41.9997 3.8261Z" fill="#AD3445"></path> </svg> 