<?xml version="1.0" encoding="UTF-8"?> <svg xmlns="http://www.w3.org/2000/svg" width="512" height="512" viewBox="0 0 512 512" fill="none"> <g clip-path="url(#clip0)"> <path d="M474.644 80.934C449.391 52.28 414.358 36.5 376 36.5C322.052 36.5 287.897 68.72 268.745 95.75C263.776 102.764 259.549 109.797 256 116.415C252.451 109.797 248.225 102.764 243.255 95.75C224.103 68.72 189.948 36.5 136 36.5C97.642 36.5 62.609 52.281 37.355 80.935C13.267 108.269 0 144.877 0 184.015C0 226.618 16.633 266.243 52.345 308.715C84.262 346.675 130.179 385.803 183.35 431.112C203.163 447.996 223.652 465.456 245.465 484.541L246.12 485.115C248.948 487.591 252.474 488.828 256 488.828C259.526 488.828 263.052 487.59 265.88 485.115L266.535 484.541C288.348 465.456 308.837 447.997 328.653 431.11C381.821 385.804 427.738 346.676 459.655 308.715C495.367 266.242 512 226.618 512 184.015C512 144.877 498.733 108.269 474.644 80.934ZM288 284C306.535 267.887 270.92 298.554 288 284C269.466 267.889 315.083 293.057 298 278.5C193.941 189.827 284 333.507 284 256.5C284 224.67 236.743 269.015 256 247.164C275.478 225.065 240.641 247.164 270.262 247.164C311.391 247.164 343.94 159.744 359 181C374.5 151.5 239.334 151.376 241.738 158.753C243.749 164.928 249.506 264.164 256 264.164C262.494 264.164 295.989 314.89 298 308.715C300.404 301.338 305.991 309.729 319.5 290.664C334.56 269.409 278.371 308.715 319.5 308.715C349.121 308.715 328.294 225.065 347.771 247.164C367.029 269.015 328.653 190.67 328.653 222.5C328.653 299.507 392.062 195.325 288 284Z" fill="#AD3445"></path> </g> <defs> <clipPath id="clip0"> <rect width="512" height="512" fill="white"></rect> </clipPath> </defs> </svg> 