<?xml version="1.0" encoding="UTF-8"?> <svg xmlns="http://www.w3.org/2000/svg" width="86" height="86" viewBox="0 0 86 86" fill="none"> <g clip-path="url(#clip0)"> <path d="M55.3178 28.3042C53.6633 28.3042 52.0441 28.8703 50.7501 29.8996L50.345 29.6179C49.1094 28.7586 47.6608 28.3042 46.1558 28.3042H30.6825C25.4641 28.3042 21.2185 32.5498 21.2185 37.7682V57.0065C21.2185 58.9328 22.7857 60.4998 24.7118 60.4998H25.6423C26.8854 65.3934 30.1486 69.4896 34.4887 71.8442C30.3024 73.0091 27.2204 76.8527 27.2204 81.4053V83.6368C27.2204 84.9401 28.2806 86.0001 29.5837 86.0001H38.1197C38.8154 86.0001 39.3795 85.4363 39.3795 84.7404C39.3795 84.0445 38.8154 83.4806 38.1197 83.4806H29.7397V81.4053C29.7397 77.3219 33.0618 73.9998 37.1453 73.9998H38.2873V75.0131C38.2873 77.6101 40.4 79.7228 42.997 79.7228C45.5938 79.7228 47.7067 77.6101 47.7067 75.0131V73.9998H48.8551C52.9386 73.9998 56.2606 77.3219 56.2606 81.4053V83.4804H43.1566C42.4608 83.4804 41.8968 84.0443 41.8968 84.7402C41.8968 85.4361 42.4608 86 43.1566 86H56.4169C57.7201 86 58.7802 84.9397 58.7802 83.6366V81.4052C58.7802 76.8527 55.6981 73.0089 51.5118 71.8441C55.8518 69.4895 59.1149 65.3932 60.3582 60.4996H61.2888C63.215 60.4996 64.782 58.9326 64.782 57.0064V48.7747C64.782 48.0788 64.2182 47.515 63.5223 47.515C62.8264 47.515 62.2625 48.0788 62.2625 48.7747V57.0064C62.2625 57.5432 61.8256 57.9801 61.2888 57.9801H60.8082C60.8736 57.3594 60.9077 56.7297 60.9077 56.0921V46.0221C60.9077 45.1122 60.195 44.3578 59.2844 44.3046C54.8851 44.0499 51.4423 43.1998 48.9404 39.8781C48.417 39.1825 47.4312 39.0095 46.6962 39.4847C41.5394 42.8169 35.3998 44.3101 26.7892 44.3261C25.8538 44.3274 25.0927 45.0886 25.0927 46.0232V56.0921C25.0927 56.7297 25.1268 57.3594 25.1921 57.9801H24.7116C24.1748 57.9801 23.7379 57.5432 23.7379 57.0064V37.7682C23.7379 33.939 26.8532 30.8237 30.6824 30.8237H46.1556C47.1438 30.8237 48.095 31.122 48.9063 31.6862L49.8446 32.3388C50.4457 32.7572 51.2631 32.7272 51.8323 32.2656L52.2825 31.9004C53.1381 31.2062 54.2161 30.8237 55.3178 30.8237C59.147 30.8237 62.2623 33.939 62.2623 37.7682V43.738C62.2623 44.4339 62.8262 44.9978 63.5221 44.9978C64.218 44.9978 64.7819 44.4339 64.7819 43.738V37.7682C64.7819 32.5498 60.5363 28.3042 55.3178 28.3042ZM42.9968 77.2031C41.7893 77.2031 40.8067 76.2205 40.8067 75.013V73.8651C41.5258 73.9532 42.2574 73.9996 43 73.9996C43.7403 73.9996 44.4699 73.9536 45.187 73.8659V75.013C45.1871 76.2207 44.2045 77.2031 42.9968 77.2031ZM27.6122 46.8397C35.9682 46.7337 42.141 45.2282 47.4171 42.0069C50.4471 45.5845 54.4347 46.4752 58.388 46.7705V56.0921C58.388 64.5772 51.485 71.4801 43 71.4801C34.5151 71.4801 27.6121 64.5771 27.6121 56.0921V46.8397H27.6122Z" fill="#AD3445"></path> <path d="M35.5876 57.3277C36.2834 57.3277 36.8474 56.7639 36.8474 56.068V55.0986C36.8474 54.4027 36.2834 53.8389 35.5876 53.8389C34.8919 53.8389 34.3279 54.4027 34.3279 55.0986V56.068C34.3279 56.7639 34.8919 57.3277 35.5876 57.3277Z" fill="#AD3445"></path> <path d="M50.4124 57.3277C51.1082 57.3277 51.6721 56.7639 51.6721 56.068V55.0986C51.6721 54.4027 51.1082 53.8389 50.4124 53.8389C49.7165 53.8389 49.1526 54.4027 49.1526 55.0986V56.068C49.1526 56.7639 49.7165 57.3277 50.4124 57.3277Z" fill="#AD3445"></path> <path d="M37.4739 64.0662C39.3076 65.0839 41.1536 65.5926 43.0002 65.5926C44.8463 65.5926 46.6932 65.0838 48.5265 64.0662C49.1348 63.7286 49.3543 62.9618 49.0167 62.3534C48.6791 61.7452 47.9123 61.5257 47.3039 61.8633C44.4079 63.4703 41.5925 63.4703 38.6967 61.8633C38.088 61.5257 37.3213 61.7452 36.9839 62.3534C36.6459 62.9617 36.8655 63.7286 37.4739 64.0662Z" fill="#AD3445"></path> <path d="M27.3865 4.45129C27.0524 4.45129 26.7319 4.58399 26.4958 4.82032L20.425 10.891C20.2377 11.0783 20.1143 11.3197 20.0721 11.5811L19.4839 15.2258C19.4194 15.6251 19.5507 16.0312 19.8368 16.3173C20.0748 16.5555 20.3961 16.6863 20.7275 16.6863C20.7942 16.6863 20.8614 16.6811 20.9283 16.6702L24.573 16.0821C24.8344 16.04 25.0759 15.9165 25.263 15.7292L31.3339 9.65833C31.8259 9.16635 31.8259 8.36866 31.3339 7.87685L28.2774 4.82032C28.0411 4.58399 27.7207 4.45129 27.3865 4.45129ZM23.7696 13.6597L22.2493 13.9051L22.4947 12.3846L27.3867 7.49254L28.6617 8.76759L23.7696 13.6597Z" fill="#AD3445"></path> <path d="M44.0767 13.3774C44.081 13.3349 44.0832 13.2919 44.0832 13.2484V6.96296C44.936 6.93038 45.5865 7.32678 46.2137 8.21383C46.6152 8.78223 47.4014 8.91728 47.9695 8.51567C48.5377 8.11405 48.6729 7.32796 48.2713 6.75989C46.8192 4.70513 44.8083 3.99899 42.4554 4.71773C41.9256 4.87965 41.5637 5.3686 41.5637 5.92257V9.93282C41.2686 9.85035 40.959 9.80281 40.6378 9.80281C38.7381 9.80281 37.1926 11.3485 37.1926 13.2482C37.1926 15.1479 38.7381 16.6934 40.6378 16.6934C42.4941 16.6936 44.0081 15.2169 44.0767 13.3774ZM39.7122 13.2484C39.7122 12.7379 40.1274 12.3225 40.6378 12.3225C41.1483 12.3225 41.5637 12.7379 41.5637 13.2484C41.5637 13.7588 41.1483 14.174 40.6378 14.174C40.1274 14.174 39.7122 13.7588 39.7122 13.2484Z" fill="#AD3445"></path> <path d="M60.1092 15.7817C60.2864 15.7817 60.4636 15.7443 60.6289 15.6697C62.8335 14.6714 66.5322 12.5102 66.5322 9.25159C66.5322 7.0675 64.8449 5.35657 62.6909 5.35657C61.5648 5.35657 60.7062 5.72694 60.1094 6.12368C59.5128 5.72694 58.6541 5.35657 57.528 5.35657C55.374 5.35657 53.6868 7.0675 53.6868 9.25159C53.6868 12.5102 57.3853 14.6714 59.5899 15.6697C59.7548 15.7443 59.932 15.7817 60.1092 15.7817ZM56.2061 9.25143C56.2061 8.56796 56.6602 7.87593 57.5279 7.87593C58.4959 7.87593 59.0272 8.4692 59.0985 8.55469C59.3283 8.88895 59.6927 9.07338 60.0991 9.08094C60.5075 9.09102 60.8839 8.87686 61.1261 8.54562C61.131 8.5389 61.6621 7.87576 62.6907 7.87576C63.5585 7.87576 64.0125 8.56779 64.0125 9.25126C64.0125 10.4936 62.5648 11.9231 60.1092 13.1292C57.6539 11.9231 56.2061 10.4937 56.2061 9.25143Z" fill="#AD3445"></path> <path d="M69.1189 0H32.9618C32.266 0 31.702 0.564039 31.702 1.25977C31.702 1.95549 32.266 2.51953 32.9618 2.51953H69.1189C69.6718 2.51953 70.1218 2.96952 70.1218 3.52264V17.6154C70.1218 18.1683 69.6718 18.6183 69.1189 18.6183H62.3136C61.737 18.6183 61.1997 18.9286 60.9116 19.4278L60.1069 20.8214L59.3025 19.4279C59.0142 18.9286 58.4769 18.6183 57.9003 18.6183H45.2065C44.6299 18.6183 44.0926 18.9286 43.8045 19.4278L42.9999 20.8214L42.195 19.4274C41.9066 18.9284 41.3694 18.6183 40.7933 18.6183H28.0996C27.5229 18.6183 26.9858 18.9286 26.6975 19.4278L25.8928 20.8214L25.0882 19.4279C24.8 18.9286 24.2627 18.6183 23.686 18.6183H16.8809C16.328 18.6183 15.878 18.1683 15.878 17.6154V3.52264C15.878 2.96952 16.328 2.51953 16.8809 2.51953H27.9247C28.6205 2.51953 29.1845 1.95549 29.1845 1.25977C29.1845 0.564039 28.6205 0 27.9247 0H16.8809C14.9387 0 13.3586 1.58025 13.3586 3.52264V17.6154C13.3586 19.5576 14.9389 21.1379 16.8811 21.1379H23.1662L24.4908 23.4321C24.779 23.9313 25.3162 24.2416 25.8926 24.2416H25.8928C26.4693 24.2416 27.0064 23.9315 27.2948 23.4321L28.6194 21.1377H40.2733L41.5979 23.432C41.8861 23.9313 42.4235 24.2414 42.9999 24.2414C43.5766 24.2414 44.1137 23.9312 44.402 23.432L45.7267 21.1375H57.3806L58.7053 23.4321C58.9936 23.9313 59.5307 24.2414 60.1072 24.2414H60.1077C60.6843 24.2412 61.2213 23.931 61.5092 23.432L62.834 21.1375H69.1192C71.0615 21.1375 72.6417 19.5573 72.6417 17.6151V3.52264C72.6414 1.58025 71.0611 0 69.1189 0V0Z" fill="#AD3445"></path> </g> <defs> <clipPath id="clip0"> <rect width="86" height="86" fill="white"></rect> </clipPath> </defs> </svg> 