<?xml version="1.0" encoding="UTF-8"?> <svg xmlns="http://www.w3.org/2000/svg" width="86" height="86" viewBox="0 0 86 86" fill="none"> <g clip-path="url(#clip0)"> <path d="M84.6657 59.3675C85.4026 59.3675 86 58.7703 86 58.0332V52.1924C86 51.4553 85.4026 50.8581 84.6657 50.8581H56.8892C56.1523 50.8581 55.5549 51.4553 55.5549 52.1924V57.7297C55.3577 57.645 55.1699 56.7916 55.0553 56.5525C54.7991 56.0175 54.4632 55.523 54.0587 55.0889C53.2439 54.2145 52.1636 53.5998 50.9933 53.3543V45.866C50.9933 41.7902 47.6773 38.4742 43.6013 38.4742H41.4494L42.665 27.8235H50.2301C51.0086 27.8235 51.7902 27.745 52.553 27.5899L64.039 25.2548C64.2844 25.2049 64.5178 25.083 64.6982 24.909L70.7842 19.0548C72.4788 17.4246 70.8383 14.5194 68.5662 15.1275L52.0215 18.8228C51.4331 18.9424 50.8304 19.003 50.2301 19.003H42.1902C42.1855 19.003 42.1811 19.0023 42.1765 19.0023H41.3113C41.81 18.1751 42.0975 17.2069 42.0975 16.1727V12.8587C45.9666 11.537 44.9881 5.625 40.9002 5.625H34.8803C32.7965 5.625 31.1011 7.32027 31.1011 9.40427V16.1724C31.1011 17.2065 31.3886 18.1749 31.8872 19.002C29.4364 18.9879 27.2743 19.7995 25.1889 21.0171C24.5525 21.3886 24.3378 22.2057 24.7093 22.8421C24.9574 23.2671 25.404 23.5039 25.8628 23.5039C26.0912 23.5039 26.3229 23.4452 26.5342 23.3217C28.1804 22.3608 29.8568 21.6707 31.7999 21.6707L50.2303 21.6715C51.0088 21.6715 51.7904 21.593 52.5532 21.4379L62.4391 19.4281V22.8568L52.0216 24.9746C51.4333 25.0942 50.8306 25.1549 50.2303 25.1549H41.4745C40.8016 25.1549 40.2142 25.6822 40.1471 26.3531L38.7639 38.4724H28.2741L29.4869 27.8462C29.6058 26.8042 28.4638 26.0243 27.5364 26.5158C24.1834 28.293 20.8135 29.8393 19.4105 33.6903L17.6684 38.4724H13.5677L16.5795 30.8975C17.4082 28.813 19.0575 27.6874 20.9054 26.6084C21.5418 26.2367 21.7564 25.4196 21.3847 24.7832C21.0131 24.1468 20.1959 23.9323 19.5596 24.3039C17.1868 25.6896 15.1521 27.2645 14.0996 29.9117L10.3613 39.3141C10.2654 39.5541 10.2421 39.8414 10.2965 40.091L11.1973 44.2343C11.85 47.2366 16.0338 47.784 17.4322 45.0409L19.7912 40.4134C19.8193 40.3582 19.8426 40.3016 19.8625 40.2442L21.9174 34.604C22.7464 32.3282 24.5143 31.1379 26.5479 30.0599L25.4771 39.4418L20.1856 50.785C19.819 51.5704 19.3317 52.2676 18.7766 52.9294L13.1569 59.4993C12.203 60.6143 12.1432 62.6809 12.4246 64.0895H1.3343C0.59741 64.0895 0 64.6867 0 65.4238V79.0411C0 79.7782 0.59741 80.3754 1.3343 80.3754L84.6657 80.3751C85.4026 80.3751 86 79.7778 86 79.0408V64.5864C86 63.8493 85.4026 63.2521 84.6657 63.2521C83.9288 63.2521 83.3314 63.8493 83.3314 64.5864V77.7065H58.2235V53.5267H83.3314V58.0332C83.3314 58.7703 83.9288 59.3675 84.6657 59.3675ZM33.7693 13.0602H39.4285V16.1724C39.4285 17.7326 38.1592 19.0018 36.5989 19.0018C35.0387 19.0018 33.7693 17.7324 33.7693 16.1724V13.0602ZM33.7693 9.40427C33.7693 8.79191 34.2675 8.2936 34.88 8.2936H40.8998C42.3337 8.2936 42.1987 10.4906 40.7628 10.3916H33.7693V9.40427ZM65.1074 20.8122V18.8185L67.982 18.047L65.1074 20.8122ZM15.055 43.8285C14.7728 44.3819 13.9359 44.2684 13.8052 43.6667L13.2562 41.1414H16.425L15.055 43.8285ZM52.6639 57.7297H44.9732C44.6476 57.7249 44.3839 57.4593 44.3839 57.1328V55.8982H49.7941C51.0629 55.8982 52.1597 56.6488 52.6639 57.7297ZM29.1114 57.7297C28.3745 57.7297 27.7771 58.3269 27.7771 59.064V64.089H26.2731C26.3017 62.523 25.4938 61.0301 24.1496 60.2179L29.0495 54.0262C30.4483 52.2546 31.2119 49.7988 32.1518 47.7661H40.8687C41.3357 47.7661 41.7155 48.1459 41.7155 48.6129V54.5639C41.7155 55.5916 41.5842 56.7144 41.7728 57.7297H29.1114ZM20.798 54.6712C21.5292 53.8416 22.1367 52.9138 22.6039 51.9131L27.6291 41.1406L43.6013 41.1426C46.2059 41.1426 48.3247 43.2615 48.3247 45.8658V53.2296H44.3841V48.6129C44.3841 46.6744 42.8072 45.0975 40.8687 45.0975H31.3446C30.7905 45.0777 30.2601 45.423 30.055 45.9423C29.5826 46.9639 29.1105 47.9852 28.6381 49.0068C28.1341 50.0968 27.7088 51.4181 26.9559 52.3715L21.2438 59.5896L16.5908 59.5897L20.798 54.6712ZM15.0283 63.4375V62.2583L21.8896 62.258C22.877 62.258 23.6504 63.1157 23.6045 64.089H15.6798C15.3204 64.089 15.0283 63.7967 15.0283 63.4375ZM2.6686 66.7576H27.7771V77.7063H2.6686V66.7576ZM55.5541 77.7063H30.4457V60.3983H55.5541V77.7063Z" fill="#AD3445"></path> <path d="M68.4704 28.4504L66.6171 32.2053L62.4735 32.8075C61.4972 32.9493 60.7014 33.62 60.3965 34.5583C60.0915 35.4966 60.3409 36.5071 61.0474 37.1956L64.0459 40.1186L63.338 44.2457C63.1713 45.2179 63.5634 46.182 64.3615 46.7618C65.1595 47.3419 66.1976 47.4168 67.071 46.9578L70.7773 45.0094L74.4836 46.9578C76.3278 47.9273 78.5687 46.2983 78.2165 44.2458L77.5086 40.1188L80.507 37.1959C81.2135 36.5073 81.4631 35.4966 81.1581 34.5585C80.8532 33.6204 80.0574 32.9495 79.0813 32.8077L74.9375 32.2053L73.0844 28.4506C72.6476 27.5659 71.7636 27.0163 70.7771 27.0165C69.791 27.0163 68.907 27.5659 68.4704 28.4504ZM72.5672 33.432C73.4978 35.3164 76.7331 35.1628 78.5054 35.4204C77.3812 36.5163 75.5025 37.7743 74.9903 39.3C74.4797 40.8211 75.2903 42.9692 75.5537 44.5052C74.2298 43.8093 72.3464 42.315 70.7775 42.3282C69.1829 42.3415 67.3531 43.7947 66.0012 44.5052C66.2667 42.9578 67.0473 40.8357 66.5647 39.3C66.0836 37.7695 64.1652 36.5082 63.0496 35.4203C64.6032 35.1945 66.8623 35.281 68.1736 34.3478C69.4811 33.4174 70.0877 31.203 70.7775 29.8053L72.5672 33.432Z" fill="#AD3445"></path> </g> <defs> <clipPath id="clip0"> <rect width="86" height="86" fill="white"></rect> </clipPath> </defs> </svg> 