<svg width="97" height="71" viewBox="0 0 97 71" fill="none" xmlns="http://www.w3.org/2000/svg">
<g clip-path="url(#clip0)">
<path d="M90.7072 15.9663C90.3045 15.5751 89.6609 15.5841 89.2696 15.9869C88.8784 16.3896 88.8876 17.0332 89.2902 17.4245C91.5546 19.6248 92.8017 22.575 92.8017 25.7314V41.8949C92.8017 42.0818 92.6497 42.2338 92.4628 42.2338H67.3151V25.7314C67.3151 20.8449 64.7268 16.5522 60.8498 14.15H81.2203C82.7612 14.15 84.257 14.4472 85.6661 15.0338C85.7938 15.0869 85.9262 15.1121 86.0564 15.1121C86.4547 15.1121 86.8327 14.8766 86.9953 14.4859C87.2111 13.9675 86.9658 13.3724 86.4473 13.1568C84.7894 12.4668 83.0307 12.1169 81.2201 12.1169H68.664V9.78541H76.2506C77.1848 9.78541 77.9449 9.02532 77.9449 8.09111V3.30221C77.9449 2.36787 77.1848 1.60791 76.2506 1.60791H68.6606C68.6256 1.07809 68.186 0.659058 67.6475 0.659058C67.086 0.659058 66.6308 1.11416 66.6308 1.67572V12.1169H53.6868C53.6852 12.1169 53.6838 12.1172 53.6822 12.1172C49.9027 12.1224 46.2867 13.7072 43.7183 16.4749H30.9689C29.6609 16.4749 28.5968 17.539 28.5968 18.8469V31.6092C28.5968 32.9172 29.6609 33.9813 30.9689 33.9813H40.0857V37.3224H35.5386C34.5297 37.3224 33.7087 38.1433 33.7087 39.1524V42.4374C33.7087 43.4464 34.5296 44.2673 35.5386 44.2673H63.2514V62.0137C63.2514 63.0857 62.8729 64.1291 62.1858 64.9521L60.2162 67.3108C59.79 67.8212 59.7004 68.5124 59.982 69.1146C60.2638 69.7169 60.8518 70.0912 61.5168 70.0912H74.5253C75.1903 70.0912 75.7783 69.7169 76.0601 69.1146C76.3418 68.5124 76.252 67.8211 75.8259 67.3108L73.8563 64.9522C73.1692 64.1292 72.7907 63.0857 72.7907 62.0137V60.95C72.7907 60.3885 72.3356 59.9334 71.774 59.9334C71.2125 59.9334 70.7574 60.3885 70.7574 60.95V62.0137C70.7574 63.5612 71.3036 65.0675 72.2956 66.2555L73.8008 68.058H62.2413L63.7465 66.2553C64.7385 65.0674 65.2847 63.561 65.2847 62.0137V44.267H70.7575V56.0482C70.7575 56.6097 71.2126 57.0648 71.7742 57.0648C72.3357 57.0648 72.7908 56.6097 72.7908 56.0482V44.267H92.4631C93.771 44.267 94.8352 43.2029 94.8352 41.8949V25.7314C94.835 22.0207 93.3691 18.5527 90.7072 15.9663ZM75.9117 7.75209H68.664V3.6411H75.9117V7.75209ZM48.9594 18.5079L40.4364 26.0654C40.3083 26.1792 40.1148 26.1792 39.9867 26.0655L31.4636 18.5079H48.9594ZM30.63 31.6091V20.4863L38.6377 27.5869C39.0863 27.9845 39.6488 28.1834 40.2114 28.1834C40.7739 28.1834 41.3366 27.9845 41.7853 27.5868L49.793 20.4862V31.6091C49.793 31.796 49.641 31.948 49.4541 31.948H30.9689C30.7821 31.948 30.63 31.796 30.63 31.6091ZM35.742 42.2338V39.3555H55.5929C56.1543 39.3555 56.6096 38.9004 56.6096 38.3388C56.6096 37.7773 56.1545 37.3222 55.5929 37.3222H42.1191V33.981H49.4543C50.7622 33.981 51.8264 32.9169 51.8264 31.609V18.8467C51.8264 17.5387 50.7622 16.4746 49.4543 16.4746H46.7437C48.735 14.9798 51.1752 14.1499 53.7005 14.1499C60.0864 14.1499 65.2819 19.3453 65.2819 25.7313V37.3222H60.4218C59.8604 37.3222 59.4051 37.7773 59.4051 38.3388C59.4051 38.9004 59.8602 39.3555 60.4218 39.3555H65.2819V42.2338H35.742Z" fill="white"/>
</g>
<rect x="3.20453" y="19.8864" width="18.1591" height="2.13636" rx="1.06818" fill="white"/>
<rect x="6.40906" y="28.4318" width="14.9545" height="2.13636" rx="1.06818" fill="white"/>
<rect x="17.0909" y="24.1591" width="4.27273" height="2.13636" rx="1.06818" fill="white"/>
<rect y="24.1591" width="16.0227" height="2.13636" rx="1.06818" fill="white"/>
<defs>
<clipPath id="clip0">
<rect width="69.4318" height="69.4318" fill="white" transform="translate(27 0.659058)"/>
</clipPath>
</defs>
</svg>
