<?xml version="1.0" encoding="UTF-8"?> <svg xmlns="http://www.w3.org/2000/svg" width="84" height="84" viewBox="0 0 84 84" fill="none"> <g clip-path="url(#clip0)"> <path d="M40.5275 27.3578C39.6216 27.3578 38.8869 28.0925 38.8869 28.9984C38.8869 29.1845 38.7356 29.3357 38.5496 29.3357C37.6436 29.3357 36.9089 30.0704 36.9089 30.9763C36.9089 31.8823 37.6436 32.617 38.5496 32.617C40.5447 32.617 42.1681 30.9936 42.1681 28.9984C42.1681 28.0925 41.4336 27.3578 40.5275 27.3578Z" fill="#AD3445"></path> <path d="M73.2674 64.2893C72.4301 63.941 71.4705 64.3377 71.1227 65.1743C67.2565 74.4722 55.9397 80.719 42.9624 80.719C42.1695 80.719 41.3794 80.6925 40.5926 80.6454L41.7676 73.1581C42.1646 73.1754 42.5627 73.1871 42.9624 73.1871C48.3078 73.1871 53.3516 71.6303 57.1648 68.8036C61.1254 65.8676 63.3066 61.9179 63.3066 57.6818C63.3066 56.7759 62.5719 56.0412 61.666 56.0412C60.76 56.0412 60.0254 56.7759 60.0254 57.6818C60.0254 62.0434 56.8198 65.8779 52.0086 68.0419C51.4092 62.8112 47.2954 58.5551 41.9692 57.8913C41.4736 57.8298 41.0132 57.608 40.6721 57.2669C40.1417 56.7364 39.9253 56.0109 40.0789 55.2762C40.2325 54.5416 40.7212 53.9633 41.4201 53.6896L44.4376 52.5076C48.5155 50.9101 51.8114 47.9441 53.7181 44.1556C54.6126 42.3787 55.1732 40.5117 55.3946 38.586C62.8059 41.1891 68.5885 46.0825 71.0756 51.9529C71.3406 52.5783 71.9479 52.954 72.5871 52.954C72.8005 52.954 73.0174 52.912 73.2262 52.8236C74.0605 52.47 74.4503 51.5071 74.0969 50.6729C72.5566 47.0378 69.915 43.6622 66.4575 40.9109C64.6609 39.4813 62.6372 38.2185 60.4567 37.152C62.8475 33.2951 63.7779 28.5372 63.083 23.5483C62.2986 17.9188 59.4912 12.4431 55.1782 8.13019C50.5469 3.49896 44.6737 0.645809 38.6401 0.0965383C32.4951 -0.462904 26.9163 1.42247 22.9331 5.40566C17.3961 10.9427 16.0221 19.5305 19.1938 27.7766C13.0536 28.509 8.276 33.7453 8.276 40.0796C8.276 44.5886 10.6972 48.5418 14.307 50.7105C14.0747 54.1131 14.3541 57.3708 15.1396 60.4241C13.0943 61.6577 11.7234 63.9008 11.7234 66.4584C11.7234 70.3413 14.8823 73.5003 18.7653 73.5003C20.0559 73.5003 21.2656 73.1497 22.3067 72.5412C24.2149 74.286 26.3906 75.7052 28.7977 76.7744C28.8654 77.558 29.0633 78.3377 29.398 79.0862C30.3385 81.1891 32.1696 82.664 34.4216 83.1322C37.1921 83.7082 40.0654 84.0002 42.9621 84.0002C49.9891 84.0002 56.6853 82.3086 62.3273 79.1088C67.9388 75.9261 72.0276 71.5432 74.152 66.4342C74.5002 65.5974 74.104 64.6371 73.2674 64.2893ZM25.2533 7.72595C28.5357 4.44362 33.1841 2.89555 38.3427 3.36411C43.6134 3.84398 48.7683 6.36049 52.858 10.4502C60.3556 17.9475 62.2069 28.653 57.4068 35.8288C56.6906 35.5558 55.9623 35.3027 55.2234 35.0718C54.5814 33.164 52.9 31.6844 50.8989 31.3776C52.4936 27.0485 51.5589 21.9906 48.0884 18.5199L47.642 18.0735C44.9057 15.3375 40.6318 14.7378 37.2482 16.615C36.4435 17.0617 35.5315 17.2977 34.611 17.2977H30.7142C30.2047 17.2977 29.724 17.5344 29.4134 17.9385C29.1028 18.3426 28.9977 18.8679 29.1289 19.3602C29.9797 22.5561 29.0543 25.993 26.7135 28.3293C26.7135 28.3293 26.1419 28.9037 26.1078 28.9451C25.073 28.4376 23.9573 28.0723 22.7861 27.8698C19.4325 20.4542 20.3732 12.6059 25.2533 7.72595ZM32.753 37.3331C34.7803 38.669 37.1216 39.3372 39.4629 39.3372C41.1907 39.3372 42.9179 38.9717 44.5195 38.2441C43.6075 41.3643 40.0146 44.1095 35.1604 45.2135C34.0123 45.4745 32.7573 45.7967 31.4645 46.158C32.4806 44.3606 33.0637 42.2875 33.0637 40.0796C33.0636 39.1356 32.954 38.2172 32.753 37.3331ZM33.1579 33.4501L29.6711 29.9634C31.9061 27.3681 32.9796 23.9618 32.6665 20.5792H34.6108C36.087 20.5792 37.5494 20.2005 38.8402 19.4844C40.95 18.3134 43.6154 18.6877 45.3216 20.394L45.768 20.8404C47.4522 22.5244 48.3796 24.7635 48.3796 27.1453C48.3796 29.5271 47.4522 31.7662 45.768 33.4503C42.2916 36.9269 36.6346 36.9269 33.1579 33.4501ZM11.5572 40.0796C11.5572 35.0548 15.6451 30.9669 20.6697 30.9669C25.6351 30.9669 29.6828 34.9593 29.7779 39.9022C29.5773 40.2838 29.1284 40.4851 28.6999 40.3596C27.8302 40.106 26.9192 40.6043 26.6647 41.4739C26.4105 42.3436 26.9094 43.2546 27.779 43.5091C28.1703 43.6233 28.5688 43.68 28.9652 43.68C28.9903 43.68 29.0154 43.6781 29.0405 43.6777C27.6424 46.9179 24.4171 49.1921 20.6699 49.1921C15.6451 49.1921 11.5572 45.1042 11.5572 40.0796ZM18.7655 70.2191C16.6917 70.2191 15.0047 68.5321 15.0047 66.4584C15.0047 64.3845 16.6917 62.6975 18.7655 62.6975C20.8392 62.6975 22.5262 64.3845 22.5262 66.4584C22.5262 68.5321 20.839 70.2191 18.7655 70.2191ZM29.7348 72.6188C29.5862 72.8755 29.4552 73.1384 29.3409 73.4054C27.6371 72.5648 26.0781 71.5152 24.6836 70.2675C25.3935 69.1684 25.8074 67.8612 25.8074 66.4584C25.8074 62.5754 22.6484 59.4163 18.7655 59.4163C18.5996 59.4163 18.4355 59.4242 18.2723 59.4355C17.6922 57.1106 17.4418 54.6433 17.5229 52.0672C18.5282 52.3314 19.5826 52.4733 20.6697 52.4733C22.2612 52.4733 23.7819 52.1685 25.1812 51.6195C28.5329 50.385 32.6793 49.1424 35.8878 48.413C39.2156 47.6563 42.2386 46.1506 44.3997 44.1735C46.7743 42.0015 48.0292 39.4155 48.0292 36.6954C48.0292 36.1295 48.2512 35.599 48.6543 35.2018C49.057 34.8048 49.5835 34.5936 50.1575 34.5989C51.2645 34.6149 52.2291 35.6328 52.2221 36.7771C52.2096 38.8273 51.7268 40.8134 50.787 42.6801C49.2444 45.7452 46.5643 48.1502 43.2405 49.452L40.2229 50.634C38.5 51.309 37.2453 52.7934 36.8668 54.6047C36.4881 56.416 37.0435 58.2785 38.3517 59.5866C39.2064 60.4413 40.347 60.9955 41.5635 61.1469C45.628 61.6534 48.7064 65.0844 48.8009 69.168C46.9786 69.6449 45.0122 69.9054 42.9622 69.9054C41.1089 69.9054 39.286 69.692 37.5443 69.2712C34.5117 68.5385 31.3001 69.9148 29.7348 72.6188ZM37.3237 80.3109C36.5723 80.2014 35.8266 80.0727 35.0898 79.9196C33.8816 79.6684 32.899 78.8765 32.3935 77.7466C31.885 76.6095 31.9511 75.3397 32.5745 74.2628C33.4168 72.8078 35.1432 72.0674 36.7736 72.461C37.3422 72.5984 37.9187 72.7143 38.5005 72.8129L37.3237 80.3109Z" fill="#AD3445"></path> <path d="M25.1815 51.6196C25.1562 51.6289 25.2069 51.6116 25.1815 51.6196V51.6196Z" fill="#AD3445"></path> <path d="M74.0793 56.9792C73.1734 56.9792 72.4387 57.7139 72.4387 58.6199C72.4387 59.5258 73.1734 60.2605 74.0793 60.2605H74.088C74.994 60.2605 75.7244 59.5258 75.7244 58.6199C75.7244 57.7139 74.9853 56.9792 74.0793 56.9792Z" fill="#AD3445"></path> </g> <defs> <clipPath id="clip0"> <rect width="84" height="84" fill="white"></rect> </clipPath> </defs> </svg> 