<svg xmlns="http://www.w3.org/2000/svg" width="119" height="119" viewBox="0 0 119 119" fill="none"> <g clip-path="url(#clip0)"> <path d="M59.4999 53.55C59.2104 53.55 58.9228 53.4866 58.655 53.3616L24.9384 37.4949C24.2442 37.1677 23.7999 36.4676 23.7999 35.7C23.7999 34.9325 24.2442 34.2323 24.9384 33.9051L58.655 18.0384C59.1905 17.7865 59.8093 17.7865 60.3448 18.0384L94.0615 33.9051C94.7557 34.2323 95.1999 34.9325 95.1999 35.7C95.1999 36.4676 94.7557 37.1677 94.0615 37.4949L60.3448 53.3616C60.0771 53.4866 59.7895 53.55 59.4999 53.55ZM30.4421 35.7L59.4999 49.3751L88.5578 35.7L59.4999 22.0249L30.4421 35.7Z" fill="#700F1C"></path> <path d="M59.5 69.4167C59.1966 69.4167 58.8911 69.3473 58.6135 69.2084L34.8135 57.3084C34.1411 56.9713 33.7167 56.285 33.7167 55.5333V40.3668C33.7167 39.6885 34.0638 39.0558 34.6369 38.6929C35.2101 38.3279 35.9301 38.2863 36.5429 38.5719L59.5 49.3751L82.4551 38.5719C83.0699 38.2843 83.7899 38.3279 84.3611 38.6929C84.9363 39.0558 85.2833 39.6885 85.2833 40.3668V55.5333C85.2833 56.285 84.8589 56.9713 84.1866 57.3084L60.3866 69.2084C60.1089 69.3473 59.8035 69.4167 59.5 69.4167ZM37.6833 54.3076L59.5 65.216L81.3167 54.3076V43.4925L60.3449 53.3616C59.8094 53.6135 59.1906 53.6135 58.6551 53.3616L37.6833 43.4925V54.3076Z" fill="#700F1C"></path> <path d="M93.2166 37.6833H59.4999C58.4051 37.6833 57.5166 36.7948 57.5166 35.7C57.5166 34.6052 58.4051 33.7167 59.4999 33.7167H93.2166C94.3114 33.7167 95.1999 34.6052 95.1999 35.7C95.1999 36.7948 94.3114 37.6833 93.2166 37.6833Z" fill="#700F1C"></path> <path d="M93.2166 55.5333C92.1218 55.5333 91.2333 54.6448 91.2333 53.55V35.7C91.2333 34.6052 92.1218 33.7167 93.2166 33.7167C94.3114 33.7167 95.1999 34.6052 95.1999 35.7V53.55C95.1999 54.6448 94.3114 55.5333 93.2166 55.5333Z" fill="#700F1C"></path> <path d="M59.4999 41.65C58.4051 41.65 57.5166 40.7615 57.5166 39.6667V31.7333C57.5166 30.6385 58.4051 29.75 59.4999 29.75C60.5947 29.75 61.4833 30.6385 61.4833 31.7333V39.6667C61.4833 40.7615 60.5947 41.65 59.4999 41.65Z" fill="#700F1C"></path> <path d="M89.2479 61.4833C88.8711 61.4833 88.4883 61.3763 88.1492 61.1502C87.2388 60.5433 86.9929 59.3116 87.5998 58.3993L91.5665 52.4493C92.1734 51.5369 93.403 51.289 94.3173 51.8999C95.2277 52.5068 95.4736 53.7384 94.8667 54.6508L90.9001 60.6008C90.5173 61.1739 89.8886 61.4833 89.2479 61.4833Z" fill="#700F1C"></path> <path d="M97.1854 61.4833C96.5448 61.4833 95.916 61.1739 95.5333 60.6008L91.5666 54.6508C90.9597 53.7404 91.2056 52.5068 92.116 51.8999C93.0263 51.289 94.258 51.5369 94.8669 52.4493L98.8335 58.3993C99.4404 59.3096 99.1945 60.5433 98.2841 61.1502C97.945 61.3763 97.5622 61.4833 97.1854 61.4833Z" fill="#700F1C"></path> <path d="M59.4999 59.5C58.4051 59.5 57.5166 58.6115 57.5166 57.5167V51.5667C57.5166 50.4719 58.4051 49.5833 59.4999 49.5833C60.5947 49.5833 61.4833 50.4719 61.4833 51.5667V57.5167C61.4833 58.6115 60.5947 59.5 59.4999 59.5Z" fill="#700F1C"></path> <path d="M117.017 77.35H1.98333C0.888533 77.35 0 76.4615 0 75.3667V9.91865C0 5.54342 3.56008 1.98334 7.93532 1.98334H111.065C115.44 1.98334 119 5.54342 119 9.91865V75.3667C119 76.4615 118.111 77.35 117.017 77.35ZM3.96667 73.3833H115.033V9.91865C115.033 7.72905 113.254 5.95 111.065 5.95H7.93532C5.74572 5.95 3.96667 7.72905 3.96667 9.91865V73.3833Z" fill="#700F1C"></path> <path d="M111.065 93.2167H7.93532C3.56008 93.2167 0 89.6566 0 85.2813V75.3667C0 74.2719 0.888533 73.3833 1.98333 73.3833H117.017C118.111 73.3833 119 74.2719 119 75.3667V85.2813C119 89.6566 115.44 93.2167 111.065 93.2167ZM3.96667 77.35V85.2813C3.96667 87.4709 5.74572 89.25 7.93532 89.25H111.065C113.254 89.25 115.033 87.4709 115.033 85.2813V77.35H3.96667Z" fill="#700F1C"></path> <path d="M65.45 85.2833H53.55C52.4552 85.2833 51.5667 84.3948 51.5667 83.3C51.5667 82.2052 52.4552 81.3167 53.55 81.3167H65.45C66.5448 81.3167 67.4333 82.2052 67.4333 83.3C67.4333 84.3948 66.5448 85.2833 65.45 85.2833Z" fill="#700F1C"></path> <path d="M109.083 77.35H9.91668C8.82188 77.35 7.93335 76.4615 7.93335 75.3667V11.9C7.93335 10.8052 8.82188 9.91666 9.91668 9.91666H109.083C110.178 9.91666 111.067 10.8052 111.067 11.9V75.3667C111.067 76.4615 110.178 77.35 109.083 77.35ZM11.9 73.3833H107.1V13.8833H11.9V73.3833Z" fill="#700F1C"></path> <path d="M85.2833 117.017H33.7166C30.4362 117.017 27.7666 114.347 27.7666 111.067C27.7666 107.786 30.4362 105.117 33.7166 105.117H85.2833C88.5637 105.117 91.2333 107.786 91.2333 111.067C91.2333 114.347 88.5637 117.017 85.2833 117.017ZM33.7166 109.083C32.6238 109.083 31.7333 109.974 31.7333 111.067C31.7333 112.159 32.6238 113.05 33.7166 113.05H85.2833C86.3761 113.05 87.2666 112.159 87.2666 111.067C87.2666 109.974 86.3761 109.083 85.2833 109.083H33.7166Z" fill="#700F1C"></path> <path d="M81.3166 109.083H37.6833C36.5885 109.083 35.7 108.195 35.7 107.1C35.7 106.005 36.5885 105.117 37.6833 105.117C44.264 105.117 47.6 100.446 47.6 91.2333C47.6 90.1385 48.4885 89.25 49.5833 89.25H69.4166C70.5114 89.25 71.4 90.1385 71.4 91.2333C71.4 100.446 74.7359 105.117 81.3166 105.117C82.4114 105.117 83.3 106.005 83.3 107.1C83.3 108.195 82.4114 109.083 81.3166 109.083ZM47.3441 105.117H71.6578C69.2143 102.411 67.7764 98.3832 67.4888 93.2167H51.5131C51.2235 98.3832 49.7876 102.411 47.3441 105.117Z" fill="#700F1C"></path> </g> <defs> <clipPath id="clip0"> <rect width="119" height="119" fill="white"></rect> </clipPath> </defs> </svg>
