<svg width="19" height="19" viewBox="0 0 19 19" fill="none" xmlns="http://www.w3.org/2000/svg">
<path d="M15.8068 3.30351C14.3563 1.20424 12.0575 0 9.50025 0C6.943 0 4.64419 1.20424 3.19369 3.30351C1.75033 5.39218 1.41705 8.03648 2.3004 10.3727C2.53667 11.0107 2.91226 11.6305 3.41405 12.2114L8.99448 18.7661C9.12069 18.9145 9.30561 19 9.50025 19C9.69489 19 9.8798 18.9145 10.006 18.7661L15.5849 12.2131C16.0889 11.629 16.464 11.0098 16.6983 10.3769C17.5834 8.03648 17.2502 5.39218 15.8068 3.30351ZM15.4543 9.91165C15.2736 10.3999 14.9786 10.8827 14.578 11.347C14.5769 11.3482 14.5758 11.3493 14.5749 11.3506L9.50025 17.311L4.4225 11.3469C4.02213 10.8829 3.72714 10.4002 3.54468 9.90724C2.81414 7.97514 3.09138 5.7888 4.28653 4.0591C5.48542 2.32386 7.38587 1.32866 9.50025 1.32866C11.6146 1.32866 13.5148 2.32383 14.7137 4.0591C15.9091 5.7888 16.1866 7.97514 15.4543 9.91165Z" fill="#700F1C"/>
<path d="M9.5002 3.94171C7.44894 3.94171 5.77991 5.61052 5.77991 7.662C5.77991 9.71348 7.44872 11.3823 9.5002 11.3823C11.5517 11.3823 13.2205 9.71348 13.2205 7.662C13.2205 5.61074 11.5515 3.94171 9.5002 3.94171ZM9.5002 10.0536C8.18148 10.0536 7.10857 8.98068 7.10857 7.66196C7.10857 6.34324 8.18148 5.27034 9.5002 5.27034C10.8189 5.27034 11.8918 6.34324 11.8918 7.66196C11.8918 8.98068 10.8189 10.0536 9.5002 10.0536Z" fill="#700F1C"/>
</svg>
