<svg width="52" height="40" viewBox="0 0 52 40" fill="none" xmlns="http://www.w3.org/2000/svg">
<path d="M50.6045 31.2271L38.9752 19.5949C41.1572 14.6411 40.2235 8.63453 36.1725 4.58251C30.8945 -0.696744 22.3512 -0.697455 17.0725 4.58251C11.8069 9.84937 11.8069 18.4192 17.0725 23.6861C21.2569 27.8713 27.3891 28.6682 32.2845 26.4051L43.8544 37.9778C45.7198 39.8436 48.7395 39.8438 50.6049 37.9774C52.4652 36.1162 52.465 33.0881 50.6045 31.2271ZM19.2273 21.5317C15.1492 17.4528 15.1492 10.8159 19.2273 6.73685C23.3143 2.64877 29.9299 2.64806 34.0177 6.73685C38.0957 10.8159 38.0957 17.4528 34.0177 21.5317C29.9305 25.6199 23.3149 25.6205 19.2273 21.5317ZM48.4498 35.8233C47.7754 36.498 46.6838 36.4983 46.0092 35.8234L34.9552 24.7668C35.8639 24.0516 36.6736 23.2303 37.3768 22.3059L48.4496 33.3813C49.1227 34.0546 49.1228 35.15 48.4498 35.8233Z" fill="#700F1C"/>
<path d="M1.52351 18.8786H8.01994C8.86132 18.8786 9.54344 18.1964 9.54344 17.3551C9.54344 16.5137 8.86132 15.8315 8.01994 15.8315H1.52351C0.682124 15.8315 0 16.5137 0 17.3551C0 18.1964 0.682124 18.8786 1.52351 18.8786Z" fill="#700F1C"/>
<path d="M1.52351 25.3789H10.4561C11.2975 25.3789 11.9796 24.6968 11.9796 23.8554C11.9796 23.014 11.2975 22.3319 10.4561 22.3319H1.52351C0.682124 22.3319 0 23.014 0 23.8554C0 24.6968 0.682124 25.3789 1.52351 25.3789Z" fill="#700F1C"/>
<path d="M1.52351 31.8792H16.9527C17.794 31.8792 18.4762 31.197 18.4762 30.3557C18.4762 29.5143 17.794 28.8322 16.9527 28.8322H1.52351C0.682124 28.8322 0 29.5143 0 30.3557C0 31.197 0.682124 31.8792 1.52351 31.8792Z" fill="#700F1C"/>
<path d="M34.8181 35.3324H1.52351C0.682124 35.3324 0 36.0145 0 36.8559C0 37.6973 0.682124 38.3794 1.52351 38.3794H34.8181C35.6595 38.3794 36.3416 37.6973 36.3416 36.8559C36.3416 36.0145 35.6595 35.3324 34.8181 35.3324Z" fill="#700F1C"/>
</svg>
