<svg width="25" height="25" viewBox="0 0 25 25" fill="none" xmlns="http://www.w3.org/2000/svg">
<path d="M18.0447 0.125H6.95496C3.18892 0.125 0.125 3.18907 0.125 6.95511V18.0449C0.125 21.8111 3.18892 24.875 6.95496 24.875H18.0447C21.8111 24.875 24.875 21.8109 24.875 18.0449V6.95511C24.8751 3.18907 21.8111 0.125 18.0447 0.125ZM22.6792 18.0449C22.6792 20.6002 20.6002 22.6791 18.0449 22.6791H6.95496C4.39976 22.6792 2.32094 20.6002 2.32094 18.0449V6.95511C2.32094 4.39991 4.39976 2.32094 6.95496 2.32094H18.0447C20.6001 2.32094 22.6791 4.39991 22.6791 6.95511V18.0449H22.6792Z"/>
<path d="M12.5 5.94861C8.88747 5.94861 5.94853 8.88761 5.94853 12.5002C5.94853 16.1127 8.88747 19.0516 12.5 19.0516C16.1125 19.0516 19.0515 16.1127 19.0515 12.5002C19.0515 8.88761 16.1125 5.94861 12.5 5.94861ZM12.5 16.7955C10.1315 16.7955 8.20439 14.8686 8.20439 12.5001C8.20439 10.1314 10.1313 8.20437 12.5 8.20437C14.8687 8.20437 16.7956 10.1314 16.7956 12.5001C16.7956 14.8686 14.8685 16.7955 12.5 16.7955Z"/>
<path d="M19.0515 4.49268C18.669 4.49268 18.2932 4.64753 18.0231 4.91885C17.7516 5.18885 17.5956 5.56473 17.5956 5.94856C17.5956 6.33119 17.7518 6.70694 18.0231 6.97826C18.2931 7.24826 18.669 7.40444 19.0515 7.40444C19.4353 7.40444 19.8098 7.24826 20.0812 6.97826C20.3525 6.70694 20.5073 6.33106 20.5073 5.94856C20.5073 5.56473 20.3525 5.18885 20.0812 4.91885C19.8112 4.64753 19.4353 4.49268 19.0515 4.49268Z"/>
</svg>
