<svg xmlns="http://www.w3.org/2000/svg" xmlns:xlink="http://www.w3.org/1999/xlink">
  <symbol id="sp-icon-fb" viewBox="0 0 13 25">
    <path d="M7.73919 8.63516V5.54141C7.74441 4.68822 8.43755 3.99935 9.29074 3.99935H10.8424V0.125009H7.73919C6.50636 0.122534 5.32331 0.611072 4.45156 1.48282C3.57981 2.35457 3.09127 3.53762 3.09375 4.77045V8.63516H0V12.5H3.09375V24.875H7.73919V12.5H10.8329L12.375 8.63516H7.73919Z" />
  </symbol>
  <symbol id="sp-icon-vk" viewBox="0 0 26 15">
    <path d="M25.2451 13.4024C25.2135 13.3392 25.1864 13.2849 25.1593 13.2397C24.7304 12.4667 23.9087 11.5128 22.6987 10.3872L22.6716 10.36L22.658 10.3465L22.6445 10.3329H22.631C22.0801 9.8085 21.7325 9.45589 21.588 9.27506C21.3216 8.93149 21.2629 8.5834 21.4074 8.23079C21.5112 7.96407 21.8995 7.39898 22.5677 6.54005C22.9199 6.08347 23.1998 5.71729 23.4075 5.44153C24.893 3.46147 25.5386 2.19568 25.3399 1.64868L25.2632 1.5221C25.2135 1.44525 25.0781 1.37292 24.8659 1.30963C24.6491 1.24634 24.3737 1.23278 24.0396 1.27799L20.3283 1.30511C20.2696 1.28251 20.1838 1.28703 20.071 1.30963C19.9581 1.33676 19.9039 1.35032 19.9039 1.35032L19.8407 1.38196L19.791 1.42265C19.7459 1.44977 19.7007 1.49498 19.6511 1.55827C19.6014 1.62156 19.5563 1.69841 19.5247 1.7843C19.1183 2.82406 18.6623 3.79148 18.1431 4.68658C17.827 5.22002 17.5336 5.68113 17.2672 6.07442C17.0008 6.46772 16.7796 6.75253 16.599 6.93787C16.4184 7.12322 16.2558 7.2724 16.1068 7.3809C15.9623 7.49392 15.8495 7.53912 15.7727 7.52104C15.696 7.50296 15.6237 7.48488 15.5515 7.47131C15.4296 7.39446 15.3348 7.29049 15.2625 7.15487C15.1903 7.01925 15.1406 6.85198 15.1135 6.65307C15.0864 6.44964 15.0729 6.27786 15.0684 6.12867C15.0639 5.98401 15.0684 5.77606 15.0729 5.50934C15.0819 5.24262 15.0864 5.06179 15.0864 4.96686C15.0864 4.64137 15.091 4.28424 15.1045 3.89998C15.118 3.51572 15.1271 3.21284 15.1361 2.99132C15.1451 2.76981 15.1497 2.53021 15.1497 2.28158C15.1497 2.03294 15.1361 1.83855 15.1045 1.69389C15.0729 1.55375 15.0277 1.41361 14.9691 1.28251C14.9104 1.15141 14.8201 1.04743 14.7027 0.970581C14.5853 0.89825 14.4408 0.839481 14.2692 0.794274C13.8132 0.690299 13.2353 0.636051 12.531 0.627009C10.9327 0.608926 9.90777 0.712902 9.45176 0.938936C9.27116 1.03387 9.10862 1.16045 8.96415 1.32771C8.81064 1.51758 8.78806 1.62156 8.90094 1.63964C9.41564 1.71649 9.78135 1.90184 9.99807 2.19568L10.0748 2.34939C10.1335 2.4624 10.1967 2.66131 10.2554 2.9416C10.3141 3.2264 10.3548 3.53833 10.3728 3.8819C10.4135 4.51027 10.4135 5.04823 10.3728 5.49578C10.3277 5.94333 10.287 6.29142 10.2509 6.54005C10.2103 6.78869 10.1561 6.99212 10.0748 7.14583C9.99807 7.29953 9.94389 7.39446 9.92132 7.43063C9.89423 7.46679 9.87617 7.48488 9.85811 7.49392C9.74524 7.5346 9.63236 7.55721 9.51046 7.55721C9.38855 7.55721 9.24407 7.49844 9.0725 7.37638C8.90094 7.25432 8.72034 7.09158 8.53974 6.87911C8.35463 6.66663 8.14694 6.37279 7.91216 5.99305C7.6819 5.61332 7.43809 5.16577 7.18976 4.65041L6.98208 4.2752C6.85114 4.0356 6.67506 3.68299 6.45382 3.22188C6.22808 2.76077 6.03393 2.31774 5.86236 1.88376C5.79464 1.70293 5.69079 1.56731 5.55083 1.47238L5.48762 1.43169C5.44699 1.39552 5.37475 1.35936 5.27993 1.32319C5.18512 1.28251 5.08579 1.25538 4.98194 1.2373L1.45124 1.26442C1.09004 1.26442 0.846233 1.3458 0.715299 1.50854L0.665635 1.58539C0.638545 1.6306 0.625 1.69841 0.625 1.79334C0.625 1.88828 0.65209 2.00582 0.701754 2.14144C1.21646 3.35298 1.77632 4.52383 2.38584 5.654C2.99536 6.78417 3.51909 7.68831 3.96608 8.37545C4.41306 9.06259 4.86907 9.71357 5.33411 10.3239C5.79915 10.9342 6.10617 11.3275 6.25517 11.4992C6.40416 11.671 6.52606 11.8021 6.61185 11.888L6.93241 12.1999C7.1401 12.4079 7.4426 12.652 7.83992 12.9413C8.24175 13.2307 8.68422 13.5155 9.16732 13.7957C9.65494 14.076 10.2193 14.3021 10.8604 14.4784C11.5061 14.6547 12.1337 14.727 12.7432 14.6908H14.2241C14.5266 14.6637 14.7523 14.5688 14.9058 14.406L14.9555 14.3427C14.9916 14.293 15.0232 14.2116 15.0503 14.1031C15.0819 13.9946 15.0955 13.8771 15.0955 13.746C15.0864 13.3753 15.1135 13.0408 15.1813 12.7469C15.2445 12.4486 15.3167 12.2271 15.4025 12.0779C15.4838 11.9287 15.5786 11.8021 15.6779 11.6981C15.7817 11.5942 15.854 11.5309 15.8991 11.5128C15.9398 11.4902 15.9759 11.4766 16.003 11.4676C16.2107 11.3998 16.45 11.4676 16.7299 11.6665C17.0098 11.8699 17.2717 12.1186 17.5155 12.4169C17.7593 12.7153 18.0528 13.0453 18.4004 13.416C18.7436 13.7867 19.0461 14.0625 19.3034 14.2433L19.5608 14.397C19.7323 14.501 19.9581 14.5959 20.2335 14.6818C20.5089 14.7677 20.7482 14.7903 20.9559 14.7451L24.2563 14.6954C24.5814 14.6954 24.8388 14.6411 25.0149 14.5326C25.1955 14.4241 25.3038 14.3066 25.3354 14.1755C25.3715 14.0444 25.3715 13.8997 25.3399 13.737C25.3038 13.5787 25.2722 13.4657 25.2451 13.4024Z"/>
  </symbol>
  <symbol id="sp-icon-insta" viewBox="0 0 25 25">
    <path d="M18.0447 0.125H6.95496C3.18892 0.125 0.125 3.18907 0.125 6.95511V18.0449C0.125 21.8111 3.18892 24.875 6.95496 24.875H18.0447C21.8111 24.875 24.875 21.8109 24.875 18.0449V6.95511C24.8751 3.18907 21.8111 0.125 18.0447 0.125ZM22.6792 18.0449C22.6792 20.6002 20.6002 22.6791 18.0449 22.6791H6.95496C4.39976 22.6792 2.32094 20.6002 2.32094 18.0449V6.95511C2.32094 4.39991 4.39976 2.32094 6.95496 2.32094H18.0447C20.6001 2.32094 22.6791 4.39991 22.6791 6.95511V18.0449H22.6792Z" />
    <path d="M12.5 5.94861C8.88747 5.94861 5.94853 8.88761 5.94853 12.5002C5.94853 16.1127 8.88747 19.0516 12.5 19.0516C16.1125 19.0516 19.0515 16.1127 19.0515 12.5002C19.0515 8.88761 16.1125 5.94861 12.5 5.94861ZM12.5 16.7955C10.1315 16.7955 8.20439 14.8686 8.20439 12.5001C8.20439 10.1314 10.1313 8.20437 12.5 8.20437C14.8687 8.20437 16.7956 10.1314 16.7956 12.5001C16.7956 14.8686 14.8685 16.7955 12.5 16.7955Z" />
    <path d="M19.0515 4.49268C18.669 4.49268 18.2932 4.64753 18.0231 4.91885C17.7516 5.18885 17.5956 5.56473 17.5956 5.94856C17.5956 6.33119 17.7518 6.70694 18.0231 6.97826C18.2931 7.24826 18.669 7.40444 19.0515 7.40444C19.4353 7.40444 19.8098 7.24826 20.0812 6.97826C20.3525 6.70694 20.5073 6.33106 20.5073 5.94856C20.5073 5.56473 20.3525 5.18885 20.0812 4.91885C19.8112 4.64753 19.4353 4.49268 19.0515 4.49268Z" />
  </symbol>
  <symbol id="sp-icon-school" viewBox="0 0 20 33">
    <path d="M10 0C5.4436 0 1.75 3.69364 1.75 8.24982C1.75 12.8061 5.4436 16.5 10 16.5C14.5564 16.5 18.25 12.8061 18.25 8.24982C18.25 3.69364 14.5564 0 10 0ZM10 11.6604C8.11654 11.6604 6.58963 10.1334 6.58963 8.24994C6.58963 6.36652 8.11654 4.83965 10 4.83965C11.8835 4.83965 13.4104 6.36652 13.4104 8.24994C13.4104 10.1334 11.8835 11.6604 10 11.6604Z"/>
    <path d="M13.0614 23.7497C16.4623 23.0569 18.5003 21.4464 18.6081 21.3599C19.6033 20.5618 19.7632 19.1081 18.9651 18.1128C18.1671 17.1176 16.7135 16.9578 15.7181 17.7558C15.697 17.7728 13.5234 19.4402 9.94691 19.4427C6.37058 19.4402 4.15096 17.7728 4.12993 17.7558C3.13452 16.9578 1.68091 17.1176 0.88293 18.1128C0.0848255 19.1081 0.24469 20.5618 1.23986 21.3599C1.34915 21.4476 3.47127 23.1001 6.96749 23.7766L2.09486 28.8689C1.20934 29.7872 1.23597 31.2495 2.1543 32.135C2.60253 32.5672 3.18023 32.782 3.75744 32.782C4.36261 32.782 4.96718 32.5455 5.42039 32.0754L9.94703 27.2534L14.9309 32.1067C15.8339 33.0082 17.2962 33.0068 18.1975 32.1041C19.0988 31.2013 19.0977 29.7388 18.1949 28.8375L13.0614 23.7497Z" />
    <path d="M9.94737 19.4427C9.94008 19.4427 9.95451 19.4429 9.94737 19.443C9.94024 19.4429 9.95466 19.4427 9.94737 19.4427Z" />
  </symbol>
  <symbol id="sp-icon-youtube" viewBox="0 0 27 19">
    <g clip-path="url(#clip0)">
      <path d="M25.8933 3.43161C25.7499 2.77958 25.4089 2.18764 24.9168 1.73652C24.4246 1.28539 23.8053 0.997039 23.1433 0.91078C19.9381 0.611724 16.7186 0.49237 13.5 0.55328C10.2936 0.493775 7.08641 0.613127 3.89332 0.91078C3.2313 0.997039 2.612 1.28539 2.11987 1.73652C1.62773 2.18764 1.28672 2.77958 1.14332 3.43161C0.760368 5.43052 0.6005 7.46576 0.666658 9.49995C0.59144 11.5331 0.742084 13.5683 1.11582 15.5683C1.25922 16.2203 1.60023 16.8123 2.09237 17.2634C2.5845 17.7145 3.2038 18.0029 3.86582 18.0891C7.06803 18.388 10.2844 18.5073 13.5 18.4466C16.7064 18.5063 19.9136 18.387 23.1067 18.0891C23.7687 18.0029 24.388 17.7145 24.8801 17.2634C25.3723 16.8123 25.7133 16.2203 25.8567 15.5683C26.2396 13.5694 26.3995 11.5341 26.3333 9.49995C26.4116 7.46712 26.264 5.43189 25.8933 3.43161ZM10.1908 13.5149V4.99911L18.3492 9.25245L10.1908 13.5149Z" />
    </g>
    <defs>
      <clipPath id="clip0">
        <rect width="25.6667" height="18.3333" transform="translate(0.666656 0.333252)"/>
      </clipPath>
    </defs>
  </symbol>
  <symbol id="sp-icon-email" viewBox="0 0 860 689">
    <path d="M176 106.5c-22.6 4.9-42.1 24-48 47.1-2 7.5-2 11.9-2 191.4s0 183.9 2 191.4c6.1 23.9 24.9 42 48.8 47.1 6.5 1.3
    35.9 1.5 253.2 1.5 217.3 0 246.7-.2 253.2-1.5 19.1-4 35.3-16.6 43.9-34 7.3-14.8 6.9-1.6 6.9-204.5 0-203.5.4-189.6-7.1-205-8.2-16.6-25.1-29.6-43.5-33.5-10.1-2.1-497.4-2.1-507.4
    0zm457 66.9c-2.5 2.4-50.8 48.1-107.4 101.6l-102.9 97.2-15.1-14.9c-8.3-8.2-49.5-48.9-91.6-90.4-42.1-41.6-81.7-80.6-88-86.7l-11.5-11.1L427
    169h210.5l-4.5 4.4zM670 374v147H190V232.8l26.3 25.7c14.4 14.2 58.4 57.6 97.7 96.4 74 73.1 78 76.7 90.6 81.3 8.2 3 23.1
    3.6 31 1.3 7.7-2.2 17.7-7.5 23.9-12.6 2.8-2.3 20-18.4 38.4-35.8C622.1 271.6 669.4 227 669.7 227c.2 0 .3 66.1.3 147z"/>
  </symbol>
</svg>
